<svg width="1075" height="749" viewBox="0 0 1075 749" fill="none" xmlns="http://www.w3.org/2000/svg">
<path d="M1000.34 657.353H688.061V512.506H1000.34V657.353Z" fill="#F5F5F5"/>
<path fill-rule="evenodd" clip-rule="evenodd" d="M992.892 650.559H695.248V520.17H992.892V650.559ZM697.153 648.556H990.9V522.087H697.153V648.556Z" fill="#E0E0E0"/>
<path d="M1076.55 657.353H1000.34V512.506H1076.55V657.353Z" fill="#E0E0E0"/>
<path d="M696.2 559.714C708.497 559.714 720.766 559.714 733.005 559.714C785.889 559.714 838.744 559.714 891.57 559.714C924.997 559.714 958.454 559.714 991.939 559.714C992.372 559.714 992.372 560.498 991.939 560.498C979.642 560.498 967.345 560.498 955.048 560.498C902.222 560.498 849.396 560.498 796.57 560.498C763.084 560.498 729.628 560.498 696.2 560.498C695.681 560.498 695.681 559.714 696.2 559.714Z" fill="#E0E0E0"/>
<path d="M844.46 560.149C843.508 547.259 843.681 533.671 844.287 520.78C844.374 520.258 845.066 520.258 845.153 520.78C845.846 533.671 845.932 547.259 845.066 560.149C844.98 560.498 844.46 560.498 844.46 560.149Z" fill="#E0E0E0"/>
<path d="M924.651 540.465C924.651 542.642 922.833 544.471 920.581 544.471C918.33 544.471 916.598 542.642 916.598 540.465C916.598 538.2 918.33 536.371 920.581 536.371C922.833 536.371 924.651 538.2 924.651 540.465Z" fill="#E0E0E0"/>
<path d="M769.464 540.465C769.464 542.642 767.645 544.471 765.394 544.471C763.142 544.471 761.41 542.642 761.41 540.465C761.41 538.2 763.142 536.371 765.394 536.371C767.645 536.371 769.464 538.2 769.464 540.465Z" fill="#E0E0E0"/>
<path d="M848.097 585.322C848.097 587.586 846.278 589.415 844.027 589.415C841.862 589.415 840.043 587.586 840.043 585.322C840.043 583.144 841.862 581.315 844.027 581.315C846.278 581.315 848.097 583.144 848.097 585.322Z" fill="#E0E0E0"/>
<path d="M747.987 657.353L718.37 748.285H709.363L725.384 657.353H747.987Z" fill="#E0E0E0"/>
<path d="M978.257 657.353L991.68 748.46H982.587L955.654 657.353H978.257Z" fill="#E0E0E0"/>
<path d="M1038.53 657.353L1053.77 748.46H1044.77L1015.93 657.353H1038.53Z" fill="#E0E0E0"/>
<path d="M847.837 626.346C847.837 628.523 846.018 630.352 843.767 630.352C841.602 630.352 839.783 628.523 839.783 626.346C839.783 624.081 841.602 622.252 843.767 622.252C846.018 622.252 847.837 624.081 847.837 626.346Z" fill="#E0E0E0"/>
<path d="M696.2 604.571C708.497 604.571 720.766 604.571 733.005 604.571C785.889 604.571 838.744 604.571 891.57 604.571C924.997 604.571 958.454 604.571 991.939 604.571C992.372 604.571 992.372 605.355 991.939 605.355C979.642 605.355 967.345 605.355 955.048 605.355C902.222 605.355 849.396 605.355 796.57 605.355C763.084 605.355 729.628 605.355 696.2 605.355C695.681 605.355 695.681 604.571 696.2 604.571Z" fill="#E0E0E0"/>
<path d="M811.639 463.904L811.553 444.568L905.947 444.045L906.12 463.382L811.639 463.904Z" fill="#E0E0E0"/>
<path d="M812.246 512.681L812.072 482.631L917.291 482.108L917.378 512.158L812.246 512.681Z" fill="#F5F5F5"/>
<path d="M897.113 511.896C896.853 511.896 896.68 505.19 896.68 496.915C896.68 488.641 896.853 481.934 897.113 481.934C897.459 481.934 897.632 488.641 897.632 496.915C897.632 505.19 897.459 511.896 897.113 511.896Z" fill="#E0E0E0"/>
<path d="M901.531 511.896C901.271 511.896 901.098 505.19 901.098 496.915C901.098 488.641 901.271 481.934 901.531 481.934C901.877 481.934 902.05 488.641 902.05 496.915C902.05 505.19 901.877 511.896 901.531 511.896Z" fill="#E0E0E0"/>
<path d="M828.006 511.896C827.746 511.896 827.486 505.19 827.486 496.915C827.486 488.641 827.746 481.934 828.006 481.934C828.352 481.934 828.525 488.641 828.525 496.915C828.525 505.19 828.352 511.896 828.006 511.896Z" fill="#E0E0E0"/>
<path d="M832.424 511.896C832.164 511.896 831.904 505.19 831.904 496.915C831.904 488.641 832.164 481.934 832.424 481.934C832.77 481.934 832.944 488.641 832.944 496.915C832.944 505.19 832.77 511.896 832.424 511.896Z" fill="#E0E0E0"/>
<path d="M842.123 497.351C842.123 497.089 852.688 496.828 865.765 496.828C878.928 496.828 889.493 497.089 889.493 497.351C889.493 497.699 878.928 497.873 865.765 497.873C852.688 497.873 842.123 497.699 842.123 497.351Z" fill="#E0E0E0"/>
<path d="M827.14 482.631L826.967 463.294L956.867 462.598L956.953 481.934L827.14 482.631Z" fill="#EBEBEB"/>
<path d="M938.334 479.495C934.957 479.495 932.186 476.708 932.186 473.311C932.186 469.827 934.957 467.04 938.334 467.04C941.712 467.04 944.483 469.827 944.483 473.311C944.483 476.708 941.712 479.495 938.334 479.495Z" fill="#E0E0E0"/>
<path d="M834.588 475.227V471.308H921.448V475.227H834.588Z" fill="#E0E0E0"/>
<path d="M1086.33 263.574H1074.12V0.35791H1086.33V263.574Z" fill="#E0E0E0"/>
<path d="M897.807 2.36133H1072.13C1072.22 2.36133 1072.31 2.44842 1072.31 2.62262V263.748C1072.31 263.836 1072.22 263.923 1072.13 263.923H897.807C897.633 263.923 897.547 263.836 897.547 263.748V2.62262C897.547 2.44842 897.633 2.36133 897.807 2.36133Z" fill="#F5F5F5"/>
<path fill-rule="evenodd" clip-rule="evenodd" d="M1074.12 265.926H895.728C895.641 265.926 895.555 265.839 895.555 265.752V0.532108C895.555 0.445008 895.641 0.35791 895.728 0.35791H1074.12C1074.21 0.35791 1074.3 0.445008 1074.3 0.532108V265.752C1074.3 265.839 1074.21 265.926 1074.12 265.926ZM899.798 261.832H1070.05C1070.14 261.832 1070.23 261.832 1070.23 261.658V4.62581C1070.23 4.53871 1070.14 4.45161 1070.05 4.45161H899.798C899.712 4.45161 899.625 4.53871 899.625 4.62581V261.658C899.625 261.832 899.712 261.832 899.798 261.832Z" fill="#EBEBEB"/>
<path d="M915.386 18.562H1054.81C1054.9 18.562 1054.99 18.6491 1054.99 18.7362V247.461C1054.99 247.548 1054.9 247.635 1054.81 247.635H915.386C915.299 247.635 915.213 247.548 915.213 247.461V18.7362C915.213 18.6491 915.299 18.562 915.386 18.562Z" fill="white"/>
<path d="M1024.07 176.038H945.782C945.724 176.038 945.695 176.009 945.695 175.951V83.6254C945.695 83.5092 945.724 83.4512 945.782 83.4512H1024.07C1024.13 83.4512 1024.15 83.5092 1024.15 83.6254V175.951C1024.15 176.009 1024.13 176.038 1024.07 176.038Z" fill="#EBEBEB"/>
<path d="M1018.01 164.716C1018.09 164.977 1014.2 166.719 1006.84 165.848C1003.2 165.325 998.696 164.019 994.279 160.796C990.036 157.574 985.966 152.348 984.58 145.38C983.108 138.499 985.446 129.876 992.028 124.301C993.673 122.995 995.578 121.775 997.657 120.992C999.908 120.208 1002.33 119.946 1004.76 120.208C1007.1 120.469 1009.61 121.34 1011.77 123.343C1013.94 125.259 1015.15 128.569 1014.54 131.531C1014.02 134.579 1012.47 136.844 1010.65 138.673C1008.91 140.502 1006.84 141.896 1004.76 143.028C1000.51 145.38 995.752 146.86 990.642 147.122C985.619 147.383 980.337 146.338 975.66 143.638C970.984 141.025 967 137.105 964.576 132.14C962.064 127.263 961.285 121.253 962.584 115.94C963.883 110.714 966.827 105.923 971.071 102.701C973.149 101.046 975.574 99.8263 978.172 99.0424C980.77 98.3456 983.454 98.2585 986.139 98.7811C988.737 99.3908 991.508 100.697 993.413 102.962C995.319 105.139 996.185 108.101 996.271 110.714C996.271 113.414 995.578 115.94 994.366 118.117C993.153 120.295 991.508 122.124 989.863 123.517C986.485 126.479 982.675 128.395 978.778 129.527C974.794 130.66 970.811 130.921 967 130.398C963.277 129.876 959.726 128.482 956.868 126.479C951.066 122.559 947.688 116.549 947.169 110.975C946.476 105.314 948.555 100.697 950.72 97.7359C952.971 94.6003 955.569 93.0325 957.388 92.3357C959.206 91.6389 960.246 91.6389 960.332 91.8131C960.419 92.0744 959.466 92.5099 957.994 93.5551C956.522 94.5132 954.53 96.2552 952.798 99.1295C951.152 101.917 949.854 106.01 950.72 110.452C951.499 114.895 954.53 119.685 959.38 122.646C964.143 125.695 970.811 126.479 977.219 124.388C980.337 123.343 983.541 121.601 986.139 119.25C988.65 116.985 990.469 113.936 990.296 110.888C990.209 107.752 988.217 105.488 984.927 104.878C983.281 104.53 981.463 104.704 979.817 105.139C978.085 105.662 976.44 106.533 974.968 107.665C971.937 110.017 969.685 113.588 968.819 117.508C967.866 121.34 968.473 125.434 970.291 129.179C972.196 132.924 975.227 136.06 978.778 138.063C982.242 140.066 986.399 140.937 990.382 140.763C994.453 140.589 998.35 139.457 1001.81 137.628C1003.55 136.67 1005.19 135.624 1006.4 134.405C1007.62 133.186 1008.48 131.792 1008.65 130.573C1008.91 129.353 1008.57 128.395 1007.79 127.524C1006.92 126.653 1005.45 126.043 1003.98 125.869C1002.51 125.608 1000.86 125.782 999.562 126.218C998.003 126.74 996.618 127.524 995.405 128.482C992.894 130.485 990.989 133.186 989.949 136.06C988.91 138.847 988.65 141.808 989.083 144.596C989.863 150.257 993.067 154.961 996.531 157.922C1000.08 160.97 1004.07 162.538 1007.27 163.322C1013.94 164.89 1017.92 164.106 1018.01 164.716Z" fill="#E0E0E0"/>
<path d="M1031.69 748.111C1031.69 748.286 800.901 748.547 516.161 748.547C231.42 748.547 0.630859 748.286 0.630859 748.111C0.630859 747.85 231.42 747.589 516.161 747.589C800.901 747.589 1031.69 747.85 1031.69 748.111Z" fill="#263238"/>
<path d="M911.23 316.618C908.459 318.882 896.508 331.251 885.597 327.418C874.599 323.673 862.994 267.406 862.994 267.406L876.764 255.212L889.321 272.284C889.321 272.284 895.729 237.792 896.768 228.821C897.721 219.937 901.358 211.837 909.412 205.304C917.552 198.859 931.408 201.036 931.408 201.036C931.408 201.036 914.088 314.44 911.23 316.618Z" fill="#FF725E"/>
<path d="M981.202 206.611C993.846 210.704 1007.44 220.198 1007.44 220.198L980.856 263.487L971.503 285.349V338.741L957.907 345.361C939.028 353.374 910.623 346.58 899.452 345.361C888.281 344.142 883.777 336.303 883.777 336.303L890.879 301.811C891.745 297.804 891.745 293.624 891.138 289.617C890.272 284.739 889.32 277.075 889.147 268.103C888.887 252.251 904.302 240.144 906.38 233.525C908.458 226.818 926.731 200.688 926.731 200.688C946.303 201.907 967.866 202.343 981.202 206.611Z" fill="#FF725E"/>
<path d="M885.164 329.422C885.164 329.422 885.222 329.015 885.337 328.202C885.511 327.331 885.713 326.199 885.943 324.805C886.55 321.67 887.416 317.402 888.455 312.176C888.888 309.563 889.754 306.689 890.187 303.553C890.302 302.798 890.418 302.014 890.533 301.201C890.591 300.388 890.678 299.546 890.793 298.675C890.966 297.021 890.88 295.279 890.88 293.537C890.793 289.965 890.1 286.307 889.061 282.562C888.022 278.904 886.723 274.897 886.983 270.629C887.156 266.448 888.455 262.529 890.014 258.871C891.486 255.3 893.391 251.99 895.21 248.941C899.02 242.844 902.83 237.705 905.948 233.263C909.066 228.995 911.577 225.424 913.396 222.898C914.204 221.737 914.868 220.808 915.387 220.111C915.849 219.414 916.109 219.095 916.167 219.153C916.167 219.153 915.965 219.502 915.561 220.198C915.099 220.895 914.464 221.853 913.655 223.073C912.01 225.599 909.499 229.17 906.381 233.612C903.35 238.054 899.626 243.28 895.902 249.377C894.084 252.425 892.265 255.648 890.706 259.219C889.234 262.79 888.022 266.623 887.849 270.716C887.589 274.723 888.888 278.642 889.84 282.388C890.88 286.133 891.572 289.878 891.659 293.537C891.659 295.279 891.659 297.021 891.486 298.763C891.428 299.634 891.342 300.476 891.226 301.288C891.111 302.101 890.995 302.885 890.88 303.64C890.36 306.863 889.494 309.65 888.974 312.35C887.849 317.576 886.983 321.757 886.29 324.805C885.944 326.257 885.684 327.389 885.51 328.202C885.337 329.015 885.222 329.422 885.164 329.422Z" fill="#263238"/>
<path d="M998.524 214.624C998.524 214.624 1031.69 226.557 1019.13 268.191C1009.09 301.289 988.478 340.832 975.402 341.616C968.647 341.964 961.286 341.79 956.696 338.132C938.077 323.325 926.732 283.694 926.732 283.694L944.485 263.661L966.135 295.888C968.56 294.843 982.936 250.248 982.936 250.248C982.936 250.248 993.328 216.018 998.524 214.624Z" fill="#FF725E"/>
<path d="M982.763 253.906C982.763 253.964 982.676 254.254 982.503 254.777C982.33 255.357 982.07 256.112 981.723 257.041C981.031 259.132 979.905 262.006 978.606 265.664C975.835 273.155 971.938 283.694 967.348 296.323L967.088 297.02L966.655 296.411C960.247 286.917 952.799 275.855 944.918 264.184L945.611 264.271C944.919 264.967 944.226 265.751 943.446 266.535C937.731 272.371 932.188 278.12 926.992 283.433L927.079 282.997C929.85 291.707 932.535 299.807 935.739 306.775C938.77 313.743 942.147 319.666 945.351 324.283C948.469 328.986 951.414 332.296 953.405 334.647C954.445 335.693 955.282 336.535 955.917 337.173C956.436 337.754 956.696 338.073 956.696 338.131C956.696 338.131 956.379 337.841 955.743 337.26C955.108 336.68 954.271 335.867 953.232 334.822C951.154 332.557 948.036 329.334 944.918 324.631C941.628 320.015 938.164 314.092 935.046 307.124C931.842 300.156 929.071 291.968 926.299 283.258L926.213 282.997L926.386 282.823C931.495 277.51 937.038 271.761 942.84 265.838C943.533 265.055 944.312 264.358 945.005 263.574L945.438 263.225L945.698 263.661C953.578 275.419 960.94 286.394 967.261 295.888L966.568 295.975C971.331 283.433 975.315 272.981 978.173 265.49C979.558 261.832 980.684 258.958 981.464 256.954C981.868 256.025 982.185 255.27 982.416 254.69C982.647 254.167 982.763 253.906 982.763 253.906Z" fill="#263238"/>
<path d="M934.786 689.754L936.085 742.711L870.615 744.627C870.788 738.356 904.303 724.681 904.303 724.681L902.051 690.8L934.786 689.754Z" fill="#FF725E"/>
<path d="M924.48 721.284C925.692 721.546 926.645 722.939 926.385 724.246C926.125 725.552 924.74 726.51 923.441 726.249C922.142 725.901 921.016 724.246 921.362 723.026C921.795 721.72 923.527 720.762 924.74 721.284" fill="#E0E0E0"/>
<path d="M870.615 744.627C870.182 742.624 873.04 741.23 873.04 741.23L935.998 738.966L936.171 745.063L870.615 744.627Z" fill="#263238"/>
<path d="M906.986 724.855C908.978 725.988 909.498 727.904 909.238 727.991C908.891 728.078 908.112 726.772 906.467 725.814C904.821 724.856 903.262 724.681 903.176 724.42C903.176 724.072 905.081 723.636 906.986 724.855Z" fill="#263238"/>
<path d="M899.712 728.862C901.185 730.517 901.011 732.346 900.665 732.346C900.405 732.346 900.059 730.866 898.933 729.646C897.807 728.253 896.335 727.73 896.422 727.469C896.422 727.12 898.327 727.208 899.712 728.862Z" fill="#263238"/>
<path d="M891.573 733.043C890.88 731.649 889.928 730.691 890.101 730.43C890.187 730.169 891.746 730.778 892.612 732.52C893.478 734.262 893.045 735.917 892.785 735.83C892.439 735.83 892.352 734.437 891.573 733.043Z" fill="#263238"/>
<path d="M906.987 715.362C909.152 715.449 910.538 716.581 910.364 716.842C910.191 717.104 908.806 716.494 906.987 716.494C905.169 716.407 903.696 716.929 903.523 716.581C903.437 716.407 904.909 715.275 906.987 715.362Z" fill="#263238"/>
<path d="M995.145 690.712L996.011 743.669L930.455 745.063C930.715 738.705 964.316 725.378 964.316 725.378L962.411 691.496L995.145 690.712Z" fill="#FF725E"/>
<path d="M984.493 722.069C985.792 722.417 986.744 723.811 986.484 725.117C986.138 726.424 984.752 727.382 983.453 727.033C982.154 726.772 981.029 725.117 981.462 723.811C981.895 722.591 983.626 721.546 984.752 722.156" fill="#E0E0E0"/>
<path d="M930.455 745.063C930.109 742.972 932.966 741.666 932.966 741.666L996.011 739.924V745.063H930.455Z" fill="#263238"/>
<path d="M967.087 725.552C968.992 726.685 969.511 728.601 969.252 728.688C968.905 728.862 968.126 727.469 966.48 726.511C964.922 725.465 963.276 725.378 963.276 725.03C963.19 724.769 965.095 724.333 967.087 725.552Z" fill="#263238"/>
<path d="M959.726 729.472C961.198 731.127 961.025 733.043 960.679 732.956C960.332 733.043 960.073 731.562 958.947 730.256C957.821 728.862 956.349 728.34 956.435 728.078C956.435 727.73 958.34 727.817 959.726 729.472Z" fill="#263238"/>
<path d="M951.585 733.653C950.892 732.172 949.939 731.214 950.112 730.953C950.199 730.691 951.758 731.388 952.537 733.13C953.403 734.872 953.057 736.44 952.71 736.44C952.451 736.353 952.278 735.046 951.585 733.653Z" fill="#263238"/>
<path d="M967.173 716.058C969.252 716.145 970.637 717.278 970.464 717.539C970.291 717.8 968.905 717.191 967.086 717.191C965.268 717.104 963.796 717.539 963.709 717.278C963.536 717.016 965.008 715.971 967.173 716.058Z" fill="#263238"/>
<path d="M972.456 337.522C972.456 337.522 989.083 355.203 997.83 376.804C1006.58 398.492 1002.77 502.925 1002.77 502.925L1000.95 557.624C1000.95 557.624 1003.55 604.658 1001.55 638.191C999.562 671.725 997.224 708.829 997.224 708.829L960.852 710.658L922.315 426.277L931.927 557.362C938.076 590.809 937.383 649.863 936.171 710.571L897.634 710.658C897.634 710.658 884.384 619.813 881.353 598.299C877.889 573.911 867.843 506.931 867.843 506.931C867.843 506.931 860.049 442.739 862.82 408.247C865.505 373.669 885.943 325.328 886.635 323.325L968.905 338.219" fill="#263238"/>
<path d="M912.443 118.465C909.845 113.849 911.404 107.578 915.214 103.92C919.111 100.174 924.653 98.7807 929.936 98.9549C935.219 99.1291 940.414 100.61 945.437 102.178C949.248 97.2129 955.916 94.687 962.065 95.8193C968.127 96.9516 973.409 101.829 975.141 107.839C978.778 106.358 983.195 107.142 986.139 109.668C989.084 112.194 990.469 116.462 989.603 120.207L967.174 131.617L947.343 180.393C940.674 187.884 928.377 189.278 920.15 183.616C912.01 177.868 908.979 165.761 913.569 156.876C911.923 155.831 910.537 154.438 909.412 152.87C904.995 150.867 901.271 147.295 899.626 142.766C896.075 133.098 902.484 120.991 912.443 118.465Z" fill="#263238"/>
<path d="M940.329 206.524C940.849 198.946 941.109 198.423 941.022 198.423C941.022 198.423 926.473 194.852 924.914 175.255C924.135 165.5 925.867 149.735 927.685 136.931C929.331 125.347 938.078 111.672 949.509 113.762L984.755 125.782C988.219 126.392 989.172 129.44 988.825 133.011L988.998 134.666L983.023 189.975L981.204 206.611C980.079 217.15 970.726 227.863 960.16 227.689C948.556 227.515 939.55 218.195 940.329 206.524Z" fill="#D28D77"/>
<path d="M934.093 152.522C935.392 152.696 936.431 153.916 936.258 155.222C936.085 156.529 934.872 157.487 933.573 157.312C932.188 157.138 931.235 155.919 931.322 154.612C931.495 153.306 932.707 152.348 934.093 152.522Z" fill="#263238"/>
<path d="M931.928 146.077C932.794 145.467 934.266 144.944 935.912 145.118C937.557 145.206 938.943 145.902 939.722 146.599C940.501 147.296 940.761 147.906 940.675 148.08C940.328 148.341 938.51 146.86 935.825 146.686C933.14 146.425 931.149 147.644 930.889 147.296C930.802 147.209 931.062 146.599 931.928 146.077Z" fill="#263238"/>
<path d="M956.957 153.915C958.342 154.089 959.295 155.309 959.122 156.615C959.035 157.922 957.823 158.793 956.437 158.619C955.052 158.444 954.099 157.225 954.272 155.919C954.445 154.612 955.658 153.741 956.957 153.915Z" fill="#263238"/>
<path d="M957.389 147.557C958.255 146.947 959.641 146.425 961.286 146.599C963.018 146.686 964.317 147.383 965.183 148.08C965.963 148.776 966.222 149.386 966.049 149.56C965.703 149.822 963.884 148.341 961.286 148.167C958.602 147.905 956.61 149.125 956.35 148.776C956.177 148.689 956.523 148.08 957.389 147.557Z" fill="#263238"/>
<path d="M940.934 166.632C940.675 166.545 940.242 166.545 939.809 166.371C939.376 166.197 938.943 165.848 938.769 165.326C938.51 164.28 939.029 163.409 939.376 162.626C940.126 161 940.906 159.316 941.714 157.574C945.005 150.344 948.036 144.683 948.295 144.77C948.555 144.944 946.13 150.867 942.753 158.009C941.887 159.809 941.079 161.493 940.328 163.061C939.895 163.845 939.549 164.542 939.722 165.064C939.809 165.587 940.415 165.761 941.108 165.848C943.706 166.371 945.351 166.806 945.351 166.981C945.351 167.155 943.619 166.981 940.934 166.632Z" fill="#263238"/>
<path d="M941.022 198.424C941.022 198.424 953.926 200.34 967.349 193.546C967.349 193.546 959.814 206.698 940.676 203.388L941.022 198.424Z" fill="#D28D77"/>
<path d="M958.429 140.154C959.642 139.718 961.287 139.37 963.192 139.544C965.098 139.718 966.656 140.415 967.696 141.112C968.735 141.808 969.168 142.505 968.995 142.767C968.562 143.463 966.05 142.592 962.933 142.244C959.815 141.896 957.13 142.244 956.871 141.547C956.784 141.199 957.304 140.676 958.429 140.154Z" fill="#263238"/>
<path d="M932.536 138.063C933.489 137.541 935.047 137.105 936.866 137.192C938.685 137.279 940.243 137.889 941.109 138.499C942.062 139.196 942.322 139.805 942.062 140.067C941.542 140.676 939.377 139.98 936.779 139.892C934.181 139.718 931.93 140.154 931.41 139.544C931.237 139.196 931.583 138.586 932.536 138.063Z" fill="#263238"/>
<path d="M974.968 114.285C974.709 118.117 972.63 121.862 969.426 124.127C966.308 126.392 962.152 127.175 958.428 126.217C955.483 125.433 952.366 123.691 949.768 125.085C946.91 126.479 946.477 130.572 943.966 132.489C940.328 135.189 935.132 131.966 930.802 132.924C927.338 133.708 925.087 136.669 922.662 139.195C920.237 141.721 916.687 144.073 913.482 142.853C913.915 139.805 914.348 136.844 915.474 133.969C916.6 131.182 918.419 128.569 921.017 127.088C922.489 126.304 924.134 125.869 925.52 124.911C928.378 122.908 929.33 119.075 931.322 116.027C933.833 112.194 938.25 109.668 942.84 109.494C946.65 109.407 950.461 110.888 954.271 110.191C957.042 109.755 959.554 108.101 962.325 107.839C967.781 107.23 972.544 111.497 976.181 115.591" fill="#263238"/>
<path d="M957.13 120.643C959.554 120.207 964.664 118.988 966.136 116.985C969.254 112.63 974.45 109.842 979.472 110.539C984.582 111.149 989.085 115.591 989.778 121.078C995.84 121.514 1001.56 125.869 1004.07 131.966C1006.58 137.976 1005.8 145.553 1002.08 150.866C1001.12 152.26 999.737 155.396 999.737 155.396C999.737 155.396 1002.33 157.922 1003.46 159.751C1008.57 168.025 998.265 172.903 998.265 172.903C998.957 178.826 993.502 179.522 990.038 179.958C986.66 180.393 985.794 189.974 983.023 189.974L982.07 160.622C981.724 160.854 981.291 160.999 980.771 161.057C974.19 162.015 974.276 149.299 976.008 145.728C973.843 143.463 971.678 141.198 970.033 138.411C968.474 135.624 967.435 128.22 968.041 124.998C965.703 124.998 956.004 120.904 957.13 120.643Z" fill="#263238"/>
<path d="M981.291 162.364C981.81 158.183 986.4 155.831 989.864 158.183C991.683 159.402 992.982 161.841 992.549 166.196C991.163 177.78 979.818 174.035 979.818 173.687C979.818 173.512 980.684 167.154 981.291 162.364Z" fill="#D28D77"/>
<path d="M983.889 169.68C983.975 169.68 984.062 169.854 984.408 170.116C984.755 170.29 985.274 170.464 985.881 170.29C987.18 169.941 988.392 168.112 988.738 166.022C988.911 164.977 988.825 163.931 988.479 163.06C988.219 162.189 987.786 161.58 987.18 161.406C986.573 161.144 986.14 161.493 985.881 161.754C985.707 162.102 985.794 162.364 985.707 162.364C985.707 162.364 985.447 162.102 985.621 161.667C985.707 161.406 985.88 161.144 986.14 160.97C986.487 160.796 986.92 160.709 987.353 160.796C988.219 160.97 988.912 161.928 989.258 162.886C989.604 163.844 989.691 164.977 989.518 166.196C989.171 168.548 987.699 170.551 986.054 170.899C985.188 170.987 984.495 170.638 984.235 170.29C983.889 170.028 983.889 169.767 983.889 169.68Z" fill="#65463C"/>
<path d="M918.331 154.002C917.725 153.741 917.032 153.218 916.166 152.434C914.434 150.954 912.182 148.167 911.143 144.073C910.624 142.07 910.364 139.631 910.797 137.192C911.23 134.753 912.269 132.227 914.088 130.05C917.638 125.782 924.133 123.169 930.455 124.475C931.061 124.562 931.667 124.824 932.187 124.998C932.707 125.172 933.226 125.433 933.746 125.608L933.14 126.043C932.88 124.475 933.313 122.82 934.179 121.601C935.045 120.295 936.171 119.336 937.383 118.64C938.682 117.856 939.981 117.42 941.367 117.159C942.666 116.898 944.051 116.898 945.35 116.985C947.862 117.246 950.2 117.856 952.365 118.378C954.616 118.901 956.608 119.249 958.427 119.336C962.237 119.336 965.182 118.117 966.654 116.811C968.299 115.417 968.559 114.198 968.646 114.285C968.703 114.285 968.617 114.546 968.386 115.069C968.126 115.591 967.693 116.288 966.914 117.072C965.355 118.553 962.324 119.946 958.427 119.946C954.53 119.946 950.2 118.291 945.264 117.856C942.752 117.594 940.154 117.943 937.816 119.336C936.69 120.033 935.651 120.991 934.958 122.124C934.179 123.256 933.832 124.562 934.006 125.956L934.092 126.74L933.313 126.392C932.88 126.217 932.36 126.043 931.927 125.869C931.321 125.695 930.888 125.521 930.282 125.346C924.306 124.127 918.158 126.566 914.694 130.572C912.962 132.576 911.923 135.014 911.576 137.366C911.143 139.718 911.316 141.895 911.749 143.899C912.702 147.905 914.78 150.605 916.339 152.173C918.071 153.741 919.197 154.351 919.11 154.438C919.11 154.438 918.851 154.293 918.331 154.002Z" fill="#455A64"/>
<path d="M917.033 113.849C917.553 113.414 918.419 112.804 919.631 112.456C920.844 112.02 922.403 111.759 924.221 112.02C925.953 112.281 927.945 113.152 929.504 114.807L928.811 114.982C929.764 110.714 933.574 106.272 938.943 104.965C941.022 104.442 943.013 104.53 944.919 104.965C946.824 105.313 948.469 106.01 950.115 106.707C953.232 108.101 956.003 109.494 958.515 110.017C961.026 110.626 963.105 110.539 964.49 110.191C965.962 109.93 966.655 109.494 966.655 109.581C966.655 109.581 966.511 109.697 966.222 109.93C965.876 110.104 965.356 110.365 964.663 110.539C963.191 110.975 961.026 111.236 958.428 110.627C955.83 110.191 952.886 108.797 949.768 107.491C946.651 106.184 942.927 104.878 939.203 105.836C934.18 107.055 930.543 111.236 929.59 115.156L929.417 115.94L928.898 115.33C927.512 113.849 925.78 112.978 924.135 112.717C922.403 112.369 920.93 112.543 919.805 112.891C917.38 113.501 916.427 114.72 916.341 114.546C916.254 114.546 916.514 114.285 917.033 113.849Z" fill="#455A64"/>
<path d="M946.996 172.641C947.689 171.77 948.815 171.335 949.941 171.335C950.98 171.335 952.366 172.032 953.145 173.077C953.203 173.135 953.232 173.164 953.232 173.164C953.289 173.222 953.318 173.28 953.318 173.338V173.251C953.578 173.6 953.751 174.122 953.751 174.558C953.838 175.603 953.145 176.561 952.279 177.171C950.893 178.129 948.902 178.129 947.603 177.084C946.304 176.038 945.957 173.948 946.996 172.641Z" fill="#65463C"/>
<path d="M953.577 172.206C953.144 173.164 952.019 174.47 950.373 175.167C948.728 175.777 947.083 175.516 946.13 175.08C945.091 174.645 944.571 174.122 944.658 174.035C944.744 173.861 945.35 174.209 946.303 174.383C947.256 174.645 948.641 174.645 950.027 174.122C951.413 173.599 952.365 172.641 952.971 171.857C953.491 170.986 953.751 170.377 953.924 170.464C954.011 170.464 954.01 171.161 953.577 172.206Z" fill="#263238"/>
<path d="M1000.08 136.495C1001.03 135.276 1002.42 133.36 1002.94 130.572C1003.2 129.179 1003.29 127.611 1002.85 126.043C1002.51 124.475 1001.73 122.908 1000.34 121.601C999.129 120.295 997.224 119.511 995.319 119.598C993.327 119.598 991.249 120.382 990.036 122.037L988.911 123.604L989.517 121.775C989.517 121.717 989.517 121.688 989.517 121.688C990.902 117.595 990.902 113.24 989.257 109.93C987.698 106.533 984.667 104.442 981.896 104.094C979.125 103.746 976.873 104.791 975.661 105.662C974.448 106.62 974.015 107.491 974.015 107.404C973.958 107.404 974.044 107.23 974.275 106.881C974.535 106.533 974.881 106.01 975.574 105.488C976.787 104.442 979.038 103.31 981.983 103.659C984.84 104.007 988.045 106.184 989.777 109.668C991.509 113.152 991.509 117.682 990.123 121.862C990.123 121.921 990.094 121.95 990.036 121.95L989.517 121.688C990.902 119.859 993.154 118.988 995.232 118.988C997.397 118.901 999.389 119.859 1000.77 121.166C1002.16 122.559 1003.03 124.301 1003.37 125.956C1003.72 127.611 1003.72 129.266 1003.37 130.66C1002.77 133.534 1001.29 135.45 1000.26 136.669C999.736 137.279 999.303 137.628 998.956 137.889C998.61 138.179 998.437 138.324 998.437 138.324C998.437 138.237 999.043 137.715 1000.08 136.495Z" fill="#263238"/>
<path d="M837.015 239.273H898.327C900.839 239.273 903.004 241.015 903.523 243.454L912.097 284.304C912.79 287.613 910.278 290.662 906.987 290.749L848.879 291.881C846.454 291.881 844.289 290.314 843.683 287.875L832.425 245.283C831.645 242.234 833.897 239.273 837.015 239.273Z" fill="#263238"/>
<path d="M827.574 254.864C826.275 253.47 826.362 251.119 827.488 249.638C828.7 248.07 830.606 247.286 832.511 247.199C834.416 247.199 836.321 247.722 838.053 248.419C840.247 249.232 842.354 250.277 844.375 251.554C845.76 252.425 847.233 253.558 847.492 255.212C847.752 256.867 846.02 258.784 844.548 257.913C846.453 258.696 848.272 260.7 848.618 262.79C848.878 264.881 847.839 266.013 845.76 266.623C847.319 267.232 848.272 269.148 847.579 270.629C846.886 272.197 844.721 272.632 843.076 272.023C841.517 271.326 840.305 270.019 839.179 268.713C840.391 270.629 840.738 273.068 840.305 275.333C835.888 273.765 832.511 269.584 831.904 264.881C829.739 263.313 829.047 260.003 830.346 257.564C828.527 257.042 826.535 254.254 826.622 252.425" fill="#D28D77"/>
<path d="M845.76 266.622C845.673 266.709 844.98 266.1 843.854 265.141C842.642 264.27 840.997 263.051 838.832 262.528C837.706 262.354 836.667 262.354 835.714 262.528C834.848 262.79 834.069 263.225 833.462 263.661C832.337 264.619 832.077 265.577 832.077 265.49C831.99 265.49 832.077 265.316 832.163 264.88C832.337 264.532 832.683 263.922 833.289 263.399C833.809 262.877 834.588 262.354 835.627 262.093C836.58 261.832 837.792 261.832 838.918 262.093C841.256 262.616 842.902 263.922 844.028 264.88C845.153 265.838 845.76 266.535 845.76 266.622Z" fill="#65463C"/>
<path d="M845.241 258.173C845.241 258.173 844.375 257.825 842.989 257.128C842.21 256.78 841.431 256.431 840.478 256.083C839.525 255.735 838.4 255.473 837.274 255.212C836.148 255.038 835.022 255.038 834.07 255.212C833.117 255.386 832.251 255.822 831.645 256.257C830.432 257.128 830.173 258.173 830.086 258.173C830.086 258.086 830.086 257.912 830.259 257.477C830.432 257.041 830.865 256.519 831.472 255.996C832.078 255.473 832.944 255.038 833.983 254.777C835.022 254.515 836.148 254.515 837.36 254.777C838.573 255.009 839.67 255.299 840.651 255.648C841.604 255.996 842.383 256.431 843.076 256.867C844.462 257.651 845.328 258.086 845.241 258.173Z" fill="#65463C"/>
<path d="M870.702 259.916L870.961 259.829C872.434 259.654 873.906 260.874 874.079 262.355C874.252 263.748 873.126 265.316 871.741 265.49C870.269 265.751 868.71 264.619 868.45 263.226C868.19 261.745 869.229 260.177 870.702 259.916Z" fill="white"/>
<path d="M933.919 240.754C933.919 240.754 933.919 240.754 931.408 240.057C928.81 239.273 929.416 235.702 929.416 235.702L935.824 235.266C935.824 235.266 935.132 233.176 930.628 230.824C926.212 228.385 928.377 224.292 928.377 224.292L936.777 227.514C936.777 227.514 935.132 224.205 933.919 220.372C932.707 216.54 936.431 215.059 936.431 215.059C936.431 215.059 943.618 226.643 943.618 229.431C943.705 232.218 943.359 235.005 943.359 235.005C945.264 237.618 944.831 241.102 944.831 241.102C944.831 241.102 946.39 246.938 945.35 251.118C944.398 255.299 939.202 262.441 939.202 262.441L942.319 266.884L928.637 280.907C928.637 280.907 923.354 269.584 920.236 265.838C917.205 262.093 919.977 254.08 920.15 250.422C920.323 246.851 917.292 243.715 916.166 239.186C914.954 234.569 917.379 234.569 919.197 233.786C921.016 233.089 927.164 245.196 927.164 245.196L933.919 240.754Z" fill="#D28D77"/>
<path d="M930.889 239.795C932.102 240.057 933.747 240.405 936.605 241.102H936.691L936.778 241.189C937.384 242.583 938.077 244.325 937.904 246.328C937.731 248.331 936.778 250.422 935.219 252.077C933.487 253.819 931.322 254.777 929.504 255.735C927.685 256.693 926.126 257.738 925.174 258.87C924.134 260.09 923.701 261.222 923.528 262.093C923.442 262.964 923.528 263.487 923.442 263.487C923.442 263.487 923.413 263.37 923.355 263.138C923.355 262.877 923.268 262.529 923.355 262.093C923.441 261.222 923.875 259.916 924.914 258.609C925.866 257.39 927.512 256.257 929.33 255.299C931.149 254.341 933.227 253.383 934.873 251.728C936.345 250.16 937.298 248.157 937.471 246.328C937.557 244.412 937.038 242.67 936.432 241.363L936.518 241.45C933.054 240.579 930.889 239.97 930.889 239.795Z" fill="#D28D77"/>
<path d="M943.532 240.58C943.445 240.58 943.272 240.057 942.925 239.273C942.492 238.402 941.713 237.444 940.587 236.747C939.375 236.137 938.162 235.789 937.21 235.615C936.344 235.441 935.824 235.354 935.824 235.266C935.824 235.179 936.344 235.179 937.296 235.266C938.249 235.354 939.548 235.615 940.76 236.312C941.453 236.66 941.973 237.183 942.406 237.618C942.752 238.141 943.012 238.663 943.185 239.099C943.532 239.97 943.532 240.58 943.532 240.58Z" fill="#D28D77"/>
<path d="M942.751 233.437C942.665 233.524 941.712 231.956 940.067 230.301C938.421 228.734 936.776 227.775 936.863 227.601C936.949 227.514 938.681 228.298 940.413 229.953C942.059 231.608 942.838 233.437 942.751 233.437Z" fill="#D28D77"/>
</svg>
