<svg width="357" height="390" viewBox="0 0 357 390" fill="none" xmlns="http://www.w3.org/2000/svg">
<g clip-path="url(#clip0_2_344)">
<path d="M258.59 47.0122H125.635V51.0657H258.59V47.0122Z" fill="#E5E5E5"/>
<path d="M258.59 57.5513H125.635V61.6048H258.59V57.5513Z" fill="#E5E5E5"/>
<path d="M258.59 68.0903H125.635V72.1438H258.59V68.0903Z" fill="#E5E5E5"/>
<path d="M258.59 137.509H125.635V141.563H258.59V137.509Z" fill="#E5E5E5"/>
<path d="M258.59 148.048H125.635V152.102H258.59V148.048Z" fill="#E5E5E5"/>
<path d="M258.59 158.587H125.635V162.641H258.59V158.587Z" fill="#E5E5E5"/>
<path d="M258.59 228.006H125.635V232.059H258.59V228.006Z" fill="#E5E5E5"/>
<path d="M258.59 238.545H125.635V242.598H258.59V238.545Z" fill="#E5E5E5"/>
<path d="M258.59 249.084H125.635V253.137H258.59V249.084Z" fill="#E5E5E5"/>
<path d="M72.4087 79.3083C70.1374 78.1368 67.7666 77.1603 65.3229 76.3898L65.0113 73.0161L52.374 71.6836L50.7679 75.9956L46.2327 77.6613C46.0704 77.7215 45.9159 77.8003 45.7725 77.8959H45.7675C45.5145 78.0633 45.2989 78.2795 45.134 78.5312C44.9692 78.7829 44.8585 79.0649 44.8087 79.3598C44.7603 79.6532 44.7717 79.953 44.8424 80.242L45.0821 81.2038C45.4272 81.4056 45.7821 81.598 46.1367 81.781L46.3621 81.8936C46.8799 82.1563 47.4073 82.405 47.949 82.6349C48.0593 82.6819 48.1791 82.7288 48.2894 82.7757C48.299 82.7804 48.3037 82.7804 48.3133 82.7851C48.5675 82.8883 48.8215 82.9868 49.0804 83.0807C49.9308 83.3986 50.7982 83.6711 51.6788 83.8971C53.9262 84.4834 56.2421 84.7799 58.568 84.7792C59.4166 84.7792 60.2555 84.7417 61.0849 84.6619C62.98 84.4907 64.8508 84.1211 66.6654 83.5593C66.67 83.5593 66.675 83.5546 66.6796 83.5546C67.8259 83.1972 68.9456 82.7629 70.0309 82.2549C70.0355 82.2502 70.0451 82.2502 70.0501 82.2455C70.2944 82.1329 70.5295 82.0109 70.7692 81.8936L70.8841 81.8373C71.0758 81.7387 71.2678 81.6402 71.4595 81.537C71.9389 81.2789 72.4087 81.0068 72.8736 80.7159C73.0031 80.6408 73.1278 80.561 73.2573 80.4766C73.4394 80.3593 73.6215 80.2373 73.799 80.1106C73.3531 79.8291 72.8881 79.5616 72.4087 79.3083Z" fill="#3F3D56"/>
<path d="M48.6914 81.3867L47.9004 77.8911H45.8341C45.8133 77.8914 45.7925 77.893 45.7719 77.8958H45.7669C45.0244 77.9573 44.3093 78.1992 43.6864 78.5996C43.2639 78.8636 42.8882 79.1932 42.5742 79.5756C43.1878 80.0307 43.8254 80.453 44.4823 80.8565L44.5111 80.8706C44.6979 80.9832 44.8898 81.0958 45.0816 81.2037C45.4266 81.4055 45.7815 81.5979 46.1361 81.7808L46.3616 81.8935C46.8794 82.1562 47.4068 82.4049 47.9484 82.6348C48.0587 82.6817 48.1786 82.7286 48.2888 82.7756C48.2984 82.7803 48.3031 82.7803 48.3127 82.785C48.5669 82.8882 48.8209 82.9867 49.0798 83.0806L48.6914 81.3867Z" fill="#3F3D56"/>
<path d="M58.1972 69.5507C63.2238 69.5507 67.2987 65.5625 67.2987 60.6429C67.2987 55.7233 63.2238 51.7351 58.1972 51.7351C53.1706 51.7351 49.0957 55.7233 49.0957 60.6429C49.0957 65.5625 53.1706 69.5507 58.1972 69.5507Z" fill="#FFB8B8"/>
<path d="M52.086 56.304C53.0282 57.3953 54.6227 57.7032 56.0935 57.8295C59.5323 58.0154 62.9809 57.7398 66.3433 57.0103C66.5516 58.9867 65.9836 61.1177 67.173 62.7435C67.7306 60.7753 68.0548 58.7507 68.1392 56.7099C68.228 55.8343 68.1112 54.9504 67.7977 54.1257C67.6301 53.7124 67.3474 53.3535 66.9817 53.0896C66.616 52.8257 66.182 52.6676 65.729 52.6331C66.4071 52.1296 67.2014 51.7973 68.0417 51.6654L65.1518 50.244L65.8939 49.4983L60.6619 49.185L62.1773 48.2427C59.8965 47.936 57.5891 47.8647 55.2931 48.0301C54.2202 48.0305 53.1676 48.3169 52.2483 48.8584C51.3845 49.463 50.8853 50.6646 51.4216 51.5523C50.7502 51.6602 50.118 51.9341 49.585 52.348C49.052 52.7619 48.6358 53.3022 48.3758 53.9175C48.0471 54.8957 47.9677 55.9377 48.1446 56.9528C48.3417 58.5814 48.7285 60.1826 49.2973 61.7252L52.086 56.304Z" fill="#2F2E41"/>
<path d="M83.7905 50.9866C82.5135 47.3961 80.4516 44.1215 77.7487 41.3911C75.0457 38.6606 71.7668 36.5401 68.1405 35.1774C64.5141 33.8147 60.6277 33.2425 56.7522 33.5009C52.8768 33.7592 49.1055 34.8418 45.7015 36.6732C42.2975 38.5046 39.3426 41.0407 37.0429 44.1046C34.7432 47.1685 33.154 50.6865 32.3863 54.4133C31.6185 58.1401 31.6906 61.9859 32.5975 65.6826C33.5044 69.3793 35.2243 72.8379 37.6373 75.8172C37.877 76.1129 38.1263 76.4085 38.3805 76.6947C38.3997 76.7134 38.414 76.7322 38.4332 76.751C39.0581 77.4557 39.7223 78.1261 40.4227 78.7592C40.6051 78.9234 40.7968 79.0923 40.9885 79.2519C41.3527 79.5709 41.7268 79.8759 42.1152 80.1668C42.2685 80.2841 42.4171 80.4014 42.5754 80.5141C43.1889 80.9692 43.8266 81.3915 44.4834 81.795L44.5122 81.8091C44.699 81.9217 44.891 82.0343 45.0827 82.1422C45.4278 82.344 45.7827 82.5364 46.1373 82.7193L46.3627 82.832C46.8805 83.0947 47.4079 83.3434 47.9496 83.5733C48.0599 83.6202 48.1797 83.6672 48.29 83.7141C48.2996 83.7188 48.3043 83.7188 48.3139 83.7235C48.5681 83.8267 48.8221 83.9252 49.081 84.0191C49.9314 84.337 50.7988 84.6095 51.6793 84.8355C53.9267 85.4217 56.2427 85.7183 58.5686 85.7176C59.4171 85.7176 60.2561 85.6801 61.0855 85.6003C62.9806 85.4291 64.8514 85.0594 66.6659 84.4977C66.6706 84.4977 66.6756 84.493 66.6802 84.493C67.8265 84.1356 68.9462 83.7013 70.0315 83.1932C70.0361 83.1885 70.0457 83.1886 70.0506 83.1839C70.295 83.0713 70.5301 82.9493 70.7698 82.832L70.8847 82.7756C71.0764 82.6771 71.2684 82.5786 71.4601 82.4754C71.9395 82.2173 72.4093 81.9451 72.8742 81.6542C73.0037 81.5791 73.1284 81.4994 73.2579 81.4149C73.44 81.2976 73.6221 81.1756 73.7996 81.0489C74.0344 80.8894 74.2694 80.7252 74.4995 80.5563C74.5714 80.5047 74.6482 80.4531 74.72 80.3968C79.2115 77.0602 82.5082 72.4174 84.1377 67.1341C85.7671 61.8508 85.6456 56.1982 83.7905 50.9866V50.9866ZM73.838 79.2565C73.6797 79.3785 73.5168 79.4958 73.3536 79.6038C73.1954 79.7211 73.0374 79.8337 72.8742 79.9369C72.7352 80.0354 72.5961 80.1293 72.4524 80.2184L72.4093 80.2466C72.3038 80.317 72.1984 80.3826 72.0928 80.4483C71.6949 80.6923 71.2922 80.9269 70.8847 81.1522L70.7553 81.2226C70.5731 81.3211 70.391 81.415 70.2089 81.5088C70.1848 81.5229 70.156 81.5322 70.1321 81.5463L70.1033 81.5604C69.8732 81.6777 69.6382 81.7903 69.4034 81.8982C68.4969 82.3255 67.5633 82.6954 66.6084 83.0056C66.4836 83.0478 66.3591 83.09 66.2346 83.1276C64.5171 83.6622 62.7458 84.0146 60.9514 84.1786C60.1651 84.249 59.3692 84.2865 58.5686 84.2865C56.3687 84.2909 54.1779 84.0101 52.0534 83.4513C50.9631 83.1728 49.8945 82.8184 48.8558 82.3909C48.8029 82.3674 48.7453 82.3487 48.6926 82.3252C48.6353 82.3018 48.5824 82.283 48.5297 82.2595C48.4721 82.2361 48.4194 82.2126 48.3618 82.1845C47.9112 81.9921 47.4653 81.7809 47.0292 81.5604L46.8183 81.4525C46.2859 81.1804 45.7635 80.8894 45.2552 80.5797C45.1066 80.4906 44.9533 80.3968 44.8093 80.2982C44.7712 80.2747 44.7375 80.2513 44.6991 80.2278C44.3587 80.0073 44.0183 79.7774 43.6876 79.5381C43.4624 79.3738 43.2369 79.2096 43.0164 79.0407C42.6473 78.7686 42.2924 78.4777 41.9473 78.1774C41.7652 78.0272 41.5878 77.863 41.4153 77.7082C40.7355 77.0939 40.092 76.4422 39.488 75.7563C39.2867 75.531 39.0901 75.3058 38.903 75.0712C38.8605 75.0248 38.8205 74.9763 38.7831 74.9258C35.6683 71.0788 33.7947 66.4109 33.4014 61.5176C33.008 56.6242 34.1128 51.7271 36.5748 47.4507C39.0367 43.1743 42.7443 39.7125 47.2246 37.5068C51.705 35.3011 56.755 34.4514 61.7308 35.0662C66.7065 35.6809 71.3824 37.7322 75.1622 40.9584C78.9419 44.1846 81.6542 48.4395 82.9532 53.1805C84.2521 57.9215 84.0788 62.9337 82.4553 67.5779C80.8319 72.2221 77.8319 76.2879 73.8379 79.2566L73.838 79.2565Z" fill="#3F3D56"/>
<path d="M83.7905 141.483C82.5135 137.893 80.4516 134.618 77.7487 131.888C75.0457 129.157 71.7668 127.037 68.1404 125.674C64.5141 124.311 60.6277 123.739 56.7522 123.998C52.8768 124.256 49.1055 125.339 45.7015 127.17C42.2974 129.001 39.3426 131.537 37.0429 134.601C34.7432 137.665 33.154 141.183 32.3863 144.91C31.6185 148.637 31.6906 152.483 32.5975 156.179C33.5044 159.876 35.2243 163.335 37.6373 166.314C37.877 166.61 38.1263 166.905 38.3803 167.191C38.3995 167.21 38.4137 167.229 38.4329 167.248C39.058 167.952 39.7222 168.623 40.4227 169.256C40.6048 169.42 40.7965 169.589 40.9882 169.749C41.3527 170.068 41.7266 170.373 42.1149 170.664C42.8732 171.249 43.6638 171.792 44.4832 172.292L44.512 172.306C45.0441 172.63 45.5858 172.93 46.1373 173.216L46.3625 173.329C46.8803 173.592 47.4077 173.84 47.9494 174.07C48.0596 174.117 48.1795 174.164 48.2897 174.211C48.2993 174.216 48.3042 174.216 48.3138 174.22C49.4084 174.666 50.5328 175.037 51.6793 175.332C53.9266 175.918 56.2426 176.215 58.5683 176.214C59.4169 176.214 60.2559 176.177 61.0852 176.097C62.9803 175.926 64.8512 175.556 66.6657 174.994C66.6706 174.994 66.6753 174.99 66.68 174.99C67.8262 174.632 68.946 174.198 70.0312 173.69C70.0359 173.685 70.0457 173.685 70.0504 173.681C70.2948 173.568 70.5298 173.446 70.7695 173.329L70.8847 173.272C71.0764 173.174 71.2681 173.075 71.4598 172.972C71.9392 172.714 72.4091 172.442 72.8742 172.151C73.0036 172.076 73.1282 171.996 73.2576 171.912C73.6795 171.64 74.0966 171.349 74.4992 171.053C74.5713 171.001 74.6479 170.95 74.72 170.894C79.2113 167.557 82.508 162.914 84.1374 157.631C85.7668 152.347 85.6454 146.695 83.7905 141.483V141.483Z" fill="white"/>
<path d="M67.3815 160.85C69.5921 160.85 71.3842 159.096 71.3842 156.932C71.3842 154.769 69.5921 153.015 67.3815 153.015C65.1709 153.015 63.3789 154.769 63.3789 156.932C63.3789 159.096 65.1709 160.85 67.3815 160.85Z" fill="#2F2E41"/>
<path d="M68.4959 153.123C69.1887 153.123 69.8696 153.299 70.4721 153.634C71.0745 153.968 71.5779 154.45 71.933 155.033C72.2881 155.615 72.4828 156.277 72.498 156.955C72.5131 157.633 72.3483 158.303 72.0196 158.9C72.3665 158.475 72.6192 157.984 72.7615 157.458C72.9038 156.932 72.9327 156.383 72.8463 155.846C72.7598 155.309 72.56 154.795 72.2595 154.337C71.959 153.88 71.5644 153.488 71.1008 153.188C70.6373 152.888 70.1149 152.686 69.5671 152.594C69.0193 152.503 68.458 152.524 67.919 152.656C67.3799 152.789 66.875 153.03 66.4363 153.364C65.9976 153.698 65.6349 154.117 65.3711 154.596C65.7453 154.136 66.2206 153.765 66.7617 153.51C67.3028 153.255 67.8958 153.123 68.4964 153.123L68.4959 153.123Z" fill="#2F2E41"/>
<path d="M59.9026 156.924C66.3965 156.924 71.6607 151.772 71.6607 145.416C71.6607 139.06 66.3965 133.908 59.9026 133.908C53.4088 133.908 48.1445 139.06 48.1445 145.416C48.1445 151.772 53.4088 156.924 59.9026 156.924Z" fill="#2F2E41"/>
<path d="M50.6737 138.276C52.6998 136.046 55.5318 134.674 58.5721 134.448C61.6124 134.223 64.6232 135.163 66.969 137.069C66.8731 136.98 66.7772 136.889 66.678 136.803C64.3553 134.766 61.3011 133.716 58.1874 133.884C55.0736 134.051 52.1554 135.422 50.0746 137.695C47.9938 139.969 46.9209 142.958 47.0919 146.005C47.263 149.053 48.664 151.909 50.9867 153.945C51.009 153.965 51.0314 153.985 51.0539 154.004C51.1536 154.091 51.2562 154.173 51.3583 154.256C49.1493 152.199 47.8431 149.383 47.7155 146.401C47.5878 143.42 48.6487 140.506 50.6742 138.276L50.6737 138.276Z" fill="#2F2E41"/>
<path d="M59.8013 156.826C63.9837 156.826 67.3742 153.508 67.3742 149.415C67.3742 145.321 63.9837 142.003 59.8013 142.003C55.619 142.003 52.2285 145.321 52.2285 149.415C52.2285 153.508 55.619 156.826 59.8013 156.826Z" fill="#A0616A"/>
<path d="M73.3534 168.726V171.213C72.8882 171.504 72.4184 171.776 71.939 172.034C71.7473 172.137 71.5556 172.236 71.3639 172.334L71.2487 172.39C71.009 172.508 70.774 172.63 70.5296 172.742C70.5249 172.747 70.5151 172.747 70.5104 172.752C69.4251 173.26 68.3054 173.694 67.1591 174.051C67.1545 174.051 67.1498 174.056 67.1449 174.056C65.3304 174.618 63.4595 174.988 61.5644 175.159C60.7351 175.239 59.8961 175.276 59.0475 175.276C56.7217 175.277 54.4058 174.98 52.1585 174.394C51.012 174.099 49.8876 173.727 48.793 173.282C48.7834 173.277 48.7785 173.277 48.7689 173.273C48.6586 173.226 48.5388 173.179 48.4285 173.132C47.8868 172.902 47.3594 172.653 46.8416 172.39L46.6165 172.278C46.0649 171.992 45.5233 171.691 44.9912 171.368L44.9624 171.353C44.143 170.854 43.3524 170.31 42.5941 169.725C42.2057 169.434 41.8319 169.129 41.4674 168.81C41.2757 168.651 41.084 168.482 40.9019 168.318C40.2014 167.685 39.5372 167.014 38.9121 166.309C38.995 165.821 39.1169 165.339 39.2766 164.869L39.2813 164.864C39.31 164.784 39.3436 164.706 39.3819 164.63C39.4084 164.562 39.4388 164.497 39.473 164.433C40.3312 162.861 41.8846 162.471 43.8118 162.387C44.9001 162.34 46.1033 162.392 47.374 162.377C48.0451 162.373 48.7401 162.349 49.4354 162.288C53.822 161.899 53.0263 159.365 53.2227 158C53.4193 156.677 54.6371 157.821 54.7185 157.897L54.7232 157.901C57.2056 159.038 59.952 159.509 62.6815 159.267C63.1513 159.21 63.6212 159.177 64.091 159.163C65.3279 159.149 65.0594 159.497 64.6329 159.783C64.4258 159.916 64.2096 160.035 63.9856 160.139C63.9856 160.139 63.789 161.312 63.5877 163.067C63.396 164.747 66.6847 165.535 66.9579 165.596C66.9635 165.6 66.9703 165.602 66.9771 165.601C68.1781 165.296 69.4426 165.329 70.6256 165.695H70.6303C71.3062 165.938 71.9093 166.343 72.3849 166.872C72.8604 167.401 73.1933 168.039 73.3534 168.726Z" fill="#BBF046"/>
<path d="M48.8405 171.743C48.8405 172.09 48.8311 172.423 48.8166 172.738C48.8119 172.925 48.8023 173.108 48.7927 173.282C48.7831 173.277 48.7782 173.277 48.7686 173.272C48.6584 173.225 48.5385 173.179 48.4283 173.132C47.8866 172.902 47.3592 172.653 46.8414 172.39L46.6162 172.278C46.0647 171.991 45.523 171.691 44.9909 171.367C45.0052 171.203 45.0293 171.039 45.0531 170.875C45.1058 170.513 45.1491 170.147 45.1779 169.786C45.3664 167.248 44.8964 164.704 43.8115 162.391V162.387C43.7156 162.199 43.6582 162.096 43.6582 162.096C43.6582 162.096 45.0531 160.923 47.0427 162.096C47.1698 162.169 47.282 162.264 47.3737 162.377C48.5722 163.762 48.8981 168.416 48.8405 171.743Z" fill="#2F2E41"/>
<path d="M70.6109 171.105C70.5917 171.63 70.5629 172.179 70.5295 172.738V172.742C70.5248 172.747 70.5149 172.747 70.5103 172.752C69.425 173.26 68.3053 173.694 67.159 174.051C67.1543 174.051 67.1497 174.056 67.1448 174.056L67.0921 172.738L67.0872 172.564L66.8332 166.145C66.8264 166 66.8497 165.855 66.9018 165.718C66.9539 165.582 67.0337 165.458 67.1363 165.353C67.2389 165.247 67.3622 165.163 67.4988 165.106C67.6354 165.049 67.7824 165.019 67.9311 165.019H70.3616C70.4815 165.019 70.5678 165.258 70.6254 165.69V165.695C70.7433 167.496 70.7385 169.304 70.6109 171.105Z" fill="#2F2E41"/>
<path d="M53.3242 140.15V147.564H55.0779L57.3096 145.223L57.0109 147.564H64.763L64.2836 145.223L65.2425 147.564H66.4784V140.15H53.3242Z" fill="#2F2E41"/>
<path d="M52.1291 148.927C52.4592 148.927 52.7269 148.447 52.7269 147.855C52.7269 147.262 52.4592 146.782 52.1291 146.782C51.7989 146.782 51.5312 147.262 51.5312 147.855C51.5312 148.447 51.7989 148.927 52.1291 148.927Z" fill="#A0616A"/>
<path d="M67.4748 148.927C67.805 148.927 68.0726 148.447 68.0726 147.855C68.0726 147.262 67.805 146.782 67.4748 146.782C67.1446 146.782 66.877 147.262 66.877 147.855C66.877 148.447 67.1446 148.927 67.4748 148.927Z" fill="#A0616A"/>
<path d="M74.9778 170.115C74.5752 170.41 74.1581 170.701 73.7362 170.973C73.6068 171.058 73.4822 171.138 73.3528 171.213C72.8877 171.504 72.4178 171.776 71.9384 172.034C71.7467 172.137 71.555 172.236 71.3633 172.334V167.163C71.3633 167.163 72.1302 167.764 73.3528 168.763C73.5061 168.89 73.6643 169.021 73.8322 169.162C74.1868 169.453 74.5705 169.772 74.9778 170.115Z" fill="#BBF046"/>
<path d="M83.7905 141.483C82.5135 137.893 80.4516 134.618 77.7487 131.888C75.0457 129.157 71.7668 127.037 68.1404 125.674C64.5141 124.311 60.6277 123.739 56.7522 123.998C52.8768 124.256 49.1055 125.339 45.7015 127.17C42.2974 129.001 39.3426 131.537 37.0429 134.601C34.7432 137.665 33.154 141.183 32.3863 144.91C31.6185 148.637 31.6906 152.483 32.5975 156.179C33.5044 159.876 35.2243 163.335 37.6373 166.314C37.877 166.61 38.1263 166.905 38.3803 167.191C38.3995 167.21 38.4137 167.229 38.4329 167.248C39.058 167.952 39.7222 168.623 40.4227 169.256C40.6048 169.42 40.7965 169.589 40.9882 169.749C41.3527 170.068 41.7266 170.373 42.1149 170.664C42.8732 171.249 43.6638 171.792 44.4832 172.292L44.512 172.306C45.0441 172.63 45.5858 172.93 46.1373 173.216L46.3625 173.329C46.8803 173.592 47.4077 173.84 47.9494 174.07C48.0596 174.117 48.1795 174.164 48.2897 174.211C48.2993 174.216 48.3042 174.216 48.3138 174.22C49.4084 174.666 50.5328 175.037 51.6793 175.332C53.9266 175.918 56.2426 176.215 58.5683 176.214C59.4169 176.214 60.2559 176.177 61.0852 176.097C62.9803 175.926 64.8512 175.556 66.6657 174.994C66.6706 174.994 66.6753 174.99 66.68 174.99C67.8262 174.632 68.946 174.198 70.0312 173.69C70.0359 173.685 70.0457 173.685 70.0504 173.681C70.2948 173.568 70.5298 173.446 70.7695 173.329L70.8847 173.272C71.0764 173.174 71.2681 173.075 71.4598 172.972C71.9392 172.714 72.4091 172.442 72.8742 172.151C73.0036 172.076 73.1282 171.996 73.2576 171.912C73.6795 171.64 74.0966 171.349 74.4992 171.053C74.5713 171.001 74.6479 170.95 74.72 170.894C79.2113 167.557 82.508 162.914 84.1374 157.631C85.7668 152.347 85.6454 146.695 83.7905 141.483V141.483ZM73.8377 169.753C73.6795 169.875 73.5165 169.993 73.3536 170.101C73.1954 170.218 73.0371 170.33 72.8742 170.434C72.7352 170.532 72.5961 170.626 72.4522 170.715C72.3323 170.795 72.2125 170.87 72.0926 170.945C71.6949 171.189 71.2922 171.424 70.8847 171.649L70.755 171.719C70.5729 171.818 70.3907 171.912 70.2086 172.006C70.1845 172.02 70.1557 172.029 70.1319 172.043L70.1031 172.057C69.873 172.174 69.6382 172.287 69.4031 172.395C68.4967 172.822 67.5631 173.192 66.6081 173.502C66.4836 173.545 66.3588 173.587 66.2343 173.624C64.5168 174.159 62.7456 174.511 60.9511 174.675C60.1648 174.746 59.3689 174.783 58.5683 174.783C56.3685 174.788 54.1777 174.507 52.0532 173.948C50.9629 173.67 49.8943 173.315 48.8555 172.888C48.7453 172.845 48.635 172.799 48.5294 172.756C48.4721 172.733 48.4192 172.709 48.3616 172.681C47.911 172.489 47.4653 172.278 47.0289 172.057L46.818 171.949C46.2859 171.677 45.7632 171.386 45.255 171.077C45.0682 170.964 44.8812 170.847 44.699 170.725C44.1236 170.354 43.5628 169.955 43.0162 169.537C42.647 169.265 42.2924 168.974 41.9471 168.674C41.765 168.524 41.5875 168.36 41.415 168.205C40.7353 167.591 40.0918 166.939 39.4878 166.253C39.2864 166.028 39.0898 165.803 38.9028 165.568C38.8602 165.522 38.8202 165.473 38.7829 165.423C35.668 161.576 33.7944 156.908 33.4011 152.014C33.0078 147.121 34.1125 142.224 36.5745 137.947C39.0365 133.671 42.744 130.209 47.2244 128.004C51.7047 125.798 56.7548 124.948 61.7305 125.563C66.7062 126.178 71.3822 128.229 75.1619 131.455C78.9417 134.681 81.654 138.936 82.9529 143.677C84.2518 148.418 84.0785 153.43 82.4551 158.075C80.8316 162.719 77.8316 166.785 73.8377 169.753V169.753Z" fill="#3F3D56"/>
<path d="M58.7198 252.32C64.4989 252.32 69.1837 247.735 69.1837 242.079C69.1837 236.423 64.4989 231.838 58.7198 231.838C52.9407 231.838 48.2559 236.423 48.2559 242.079C48.2559 247.735 52.9407 252.32 58.7198 252.32Z" fill="#2F2E41"/>
<path d="M50.5507 236.557C52.2417 234.902 52.5844 232.555 51.3162 231.313C50.048 230.072 47.6491 230.408 45.9582 232.063C44.2673 233.717 43.9246 236.065 45.1928 237.306C46.461 238.548 48.8598 238.212 50.5507 236.557Z" fill="#2F2E41"/>
<path d="M69.6241 233.305C70.3286 231.691 69.117 229.637 66.9179 228.718C64.7188 227.798 62.365 228.361 61.6604 229.976C60.9559 231.59 62.1675 233.644 64.3666 234.563C66.5657 235.483 68.9196 234.919 69.6241 233.305Z" fill="#2F2E41"/>
<path d="M71.2347 261.944L70.0019 260.046C69.4788 258.902 68.5138 258.008 67.3184 257.559C66.123 257.11 64.7946 257.143 63.6241 257.651C62.4535 258.159 61.5364 259.1 61.0735 260.268C60.6105 261.437 60.6396 262.737 61.1542 263.884L61.5048 265.115L61.9038 266.511C63.5189 266.311 65.1126 265.971 66.6659 265.493C66.6705 265.493 66.6748 265.491 66.678 265.487C67.8261 265.132 68.947 264.697 70.0323 264.186C70.0382 264.18 70.0441 264.18 70.0503 264.174C70.2919 264.062 70.5277 263.944 70.7694 263.825C70.8089 263.808 70.8472 263.788 70.8842 263.766C71.0775 263.671 71.2711 263.571 71.4584 263.47C71.6517 263.37 71.839 263.263 72.0203 263.151L71.2347 261.944Z" fill="#CACACA"/>
<path d="M59.0505 253.216C63.9552 253.216 67.9312 249.324 67.9312 244.524C67.9312 239.724 63.9552 235.832 59.0505 235.832C54.1459 235.832 50.1699 239.724 50.1699 244.524C50.1699 249.324 54.1459 253.216 59.0505 253.216Z" fill="#FFB6B6"/>
<path d="M71.8766 261.572C70.897 259.977 69.6811 258.534 68.2685 257.289C67.301 256.443 66.0488 255.976 64.7513 255.976H52.2413C51.5205 255.976 50.8072 256.12 50.1456 256.401C49.4841 256.681 48.8882 257.091 48.3949 257.605C47.9016 258.12 47.5213 258.728 47.2775 259.391C47.0337 260.055 46.9316 260.761 46.9775 261.465C47.0048 261.862 47.0779 262.255 47.1953 262.636C47.2844 262.913 47.3955 263.182 47.5275 263.441L48.144 264.647C48.1924 264.665 48.2408 264.689 48.2889 264.707C48.3009 264.712 48.3072 264.712 48.313 264.718C48.5668 264.819 48.8209 264.919 49.0805 265.014C49.931 265.332 50.7986 265.605 51.6794 265.83C53.0973 266.203 54.5447 266.458 56.0063 266.593C56.8585 266.67 57.7107 266.712 58.5689 266.712C59.4211 266.712 60.255 266.67 61.0889 266.593C61.361 266.57 61.6328 266.54 61.9048 266.511C63.52 266.311 65.1137 265.971 66.667 265.493C66.6716 265.493 66.6759 265.491 66.6791 265.487C67.8272 265.132 68.9481 264.697 70.0334 264.186C70.0393 264.18 70.0452 264.18 70.0514 264.174C70.2931 264.062 70.5288 263.944 70.7705 263.825C70.81 263.808 70.8483 263.788 70.8853 263.766C71.0786 263.671 71.2721 263.571 71.4595 263.47C71.6528 263.37 71.8401 263.263 72.0214 263.151C72.215 263.05 72.3962 262.938 72.5835 262.826C72.354 262.382 72.1183 261.968 71.8766 261.572Z" fill="#CACACA"/>
<path d="M54.5063 257.562C53.3486 257.032 52.0236 256.972 50.821 257.395C49.6184 257.818 48.6359 258.691 48.0884 259.821L46.9762 261.465L46.4445 262.252L45.6348 263.447C45.8039 263.535 45.967 263.624 46.1364 263.713L46.3598 263.825C46.8797 264.086 47.4053 264.334 47.9494 264.565C48.0096 264.594 48.0764 264.618 48.1427 264.647C48.1911 264.665 48.2395 264.689 48.2876 264.707C48.2997 264.712 48.3059 264.713 48.3118 264.718C48.5656 264.819 48.8196 264.92 49.0793 265.014C49.9298 265.332 50.7973 265.605 51.6782 265.83C53.0961 266.203 54.5435 266.458 56.0051 266.593L56.4282 265.192L56.8393 263.855C57.381 262.717 57.4397 261.416 57.0023 260.236C56.565 259.056 55.6673 258.094 54.5063 257.562Z" fill="#CACACA"/>
<path d="M49.7188 239.057C51.7481 240.426 54.1568 241.154 56.6214 241.145C55.7423 241.741 54.7414 242.144 53.6878 242.326C56.9647 243.014 60.3515 243.033 63.6361 242.381C64.3662 242.266 65.0707 242.029 65.7187 241.681C66.0416 241.504 66.3229 241.263 66.5443 240.973C66.7658 240.683 66.9225 240.351 67.0041 239.998C67.2224 238.778 66.2508 237.669 65.2411 236.922C63.6952 235.795 61.9127 235.019 60.0227 234.649C58.1326 234.28 56.1823 234.326 54.3127 234.784C53.067 235.03 51.9334 235.657 51.0761 236.575C50.6612 237.042 50.4108 237.627 50.3618 238.244C50.3127 238.861 50.4677 239.477 50.8038 240.001L49.7188 239.057Z" fill="#2F2E41"/>
<path d="M83.7942 231.98C82.5175 228.389 80.4558 225.114 77.7529 222.383C75.05 219.653 71.7709 217.532 68.1444 216.169C64.5179 214.806 60.6312 214.233 56.7555 214.492C52.8797 214.75 49.1082 215.832 45.7039 217.664C42.2996 219.495 39.3445 222.032 37.0446 225.096C34.7448 228.16 33.1557 231.678 32.388 235.405C31.6203 239.132 31.6926 242.979 32.5998 246.675C33.5071 250.372 35.2274 253.831 37.6408 256.81C37.8762 257.106 38.1303 257.402 38.3841 257.686C38.3986 257.707 38.4148 257.727 38.4325 257.745C39.0584 258.449 39.7242 259.119 40.4267 259.75C40.6079 259.916 40.7953 260.087 40.9889 260.247C41.3512 260.566 41.726 260.868 42.1188 261.158C42.2698 261.276 42.4209 261.394 42.5782 261.507C43.1885 261.962 43.8291 262.382 44.4818 262.79C44.493 262.79 44.5037 262.795 44.5119 262.802C44.6993 262.914 44.8929 263.027 45.0862 263.133C45.2674 263.24 45.4547 263.346 45.6362 263.447C45.8053 263.536 45.9685 263.624 46.1379 263.713L46.3613 263.825C46.8812 264.086 47.4068 264.334 47.9509 264.565C48.0111 264.594 48.0778 264.618 48.1442 264.648C48.1926 264.665 48.241 264.689 48.2891 264.707C48.3012 264.713 48.3074 264.713 48.3132 264.719C48.567 264.819 48.8211 264.92 49.0808 265.014C49.9312 265.332 50.7988 265.605 51.6796 265.831C53.0975 266.203 54.5449 266.458 56.0065 266.594C56.8587 266.67 57.711 266.712 58.5691 266.712C59.4213 266.712 60.2552 266.67 61.0891 266.594C61.3612 266.57 61.633 266.54 61.9051 266.511C63.5202 266.311 65.114 265.971 66.6672 265.493C66.6718 265.493 66.6761 265.491 66.6793 265.487C67.8274 265.132 68.9483 264.697 70.0336 264.186C70.0395 264.18 70.0454 264.18 70.0516 264.174C70.2933 264.062 70.529 263.944 70.7707 263.825C70.8102 263.808 70.8485 263.788 70.8855 263.766C71.0788 263.672 71.2724 263.571 71.4597 263.47C71.653 263.37 71.8403 263.263 72.0216 263.151C72.2152 263.051 72.3964 262.938 72.5837 262.826C72.6805 262.767 72.7772 262.708 72.8738 262.648C73.0069 262.571 73.1276 262.495 73.2607 262.406C73.4419 262.293 73.6234 262.169 73.7984 262.045C74.0341 261.885 74.2699 261.72 74.4995 261.548C74.5769 261.499 74.6515 261.446 74.7232 261.388C79.2111 258.049 82.5053 253.407 84.1346 248.125C85.7638 242.843 85.6447 237.192 83.7942 231.98L83.7942 231.98ZM73.8409 260.247C73.6836 260.371 73.5204 260.489 73.3575 260.596C73.194 260.714 73.037 260.827 72.8739 260.933C72.7349 261.028 72.5959 261.122 72.451 261.211C72.4379 261.222 72.4236 261.232 72.4085 261.241C72.3058 261.312 72.1969 261.377 72.0942 261.442C72.0217 261.483 71.9494 261.53 71.8768 261.572C71.6652 261.702 71.4536 261.826 71.2361 261.945C71.1213 262.016 71.0003 262.081 70.8856 262.146C70.8434 262.169 70.8009 262.193 70.7586 262.217C70.5713 262.317 70.3901 262.406 70.2086 262.5C70.1847 262.518 70.1543 262.524 70.1363 262.542C70.125 262.542 70.1143 262.546 70.1059 262.554C69.8763 262.672 69.6406 262.784 69.4051 262.891C68.4976 263.318 67.5629 263.688 66.6067 263.997C66.486 264.038 66.3592 264.086 66.2382 264.121C64.6969 264.6 63.1123 264.932 61.5061 265.115C61.3249 265.139 61.1376 265.156 60.9502 265.174C60.1646 265.245 59.3729 265.28 58.5691 265.28C57.8559 265.28 57.1367 265.251 56.4297 265.192C54.9515 265.071 53.4873 264.822 52.0544 264.446C50.9637 264.168 49.8952 263.812 48.8574 263.382C48.8029 263.358 48.7486 263.34 48.6943 263.317C48.6338 263.293 48.5854 263.275 48.5311 263.252C48.4706 263.228 48.4222 263.204 48.3617 263.175C47.9689 263.009 47.5762 262.826 47.1955 262.637C47.1409 262.607 47.0866 262.583 47.0324 262.554L46.8208 262.447C46.6939 262.382 46.567 262.317 46.446 262.252C46.0411 262.039 45.6422 261.808 45.2556 261.572C45.1104 261.483 44.9534 261.389 44.8083 261.294L44.6994 261.223C44.3609 260.998 44.0227 260.773 43.6902 260.531C43.4665 260.365 43.2369 260.206 43.0194 260.034C42.6509 259.762 42.2941 259.472 41.9497 259.17C41.7683 259.023 41.5871 258.857 41.418 258.703C40.7374 258.09 40.0938 257.438 39.4902 256.751C39.2907 256.527 39.0912 256.302 38.9038 256.065C38.8616 256.018 38.8253 255.971 38.7828 255.917C35.6672 252.07 33.793 247.402 33.3993 242.508C33.0056 237.614 34.1102 232.716 36.5722 228.439C39.0342 224.162 42.7421 220.699 47.2229 218.493C51.7037 216.287 56.7544 215.437 61.7309 216.051C66.7073 216.666 71.3839 218.717 75.1643 221.944C78.9447 225.17 81.6575 229.426 82.9568 234.167C84.256 238.909 84.0828 243.922 82.4593 248.567C80.8357 253.211 77.8354 257.278 73.841 260.247H73.8409Z" fill="#3F3D56"/>
<path d="M103.25 104.272C93.9507 96.5917 82.5708 91.7226 70.4953 90.2571C58.4198 88.7915 46.1694 90.7926 35.2348 96.0169C24.3002 101.241 15.1528 109.464 8.9058 119.683C2.65875 129.903 -0.418616 141.679 0.0481693 153.58C0.514954 165.48 4.50576 176.991 11.535 186.712C18.5642 196.432 28.3287 203.944 39.6404 208.333C50.9521 212.721 63.3232 213.797 75.2483 211.43C87.1734 209.062 98.1384 203.354 106.809 194.998L183.802 258.582C184.975 259.547 186.49 260.017 188.015 259.889C189.541 259.762 190.953 259.048 191.941 257.904C192.93 256.759 193.414 255.278 193.289 253.784C193.163 252.291 192.438 250.907 191.271 249.936L191.263 249.929L114.269 186.345C123.213 173.782 127.042 158.402 125.003 143.22C122.965 128.037 115.207 114.148 103.25 104.272ZM98.2868 180.222C92.2886 187.18 84.3173 192.24 75.3807 194.763C66.4442 197.286 56.9438 197.159 48.081 194.398C39.2182 191.637 31.391 186.366 25.5892 179.251C19.7875 172.136 16.2717 163.497 15.4865 154.426C14.7014 145.356 16.6821 136.261 21.1781 128.292C25.6742 120.323 32.4837 113.838 40.7456 109.657C49.0075 105.476 58.3506 103.787 67.5935 104.802C76.8365 105.818 85.564 109.494 92.6725 115.364C102.205 123.236 108.151 134.492 109.204 146.655C110.257 158.819 106.33 170.893 98.2868 180.222Z" fill="#3F3D56"/>
<path opacity="0.3" d="M32.0169 185.717C22.9953 178.266 17.1667 167.767 15.6884 156.304C14.21 144.842 17.1901 133.255 24.0369 123.843C23.1377 124.73 22.2685 125.658 21.4292 126.628C17.4465 131.247 14.4326 136.589 12.5593 142.349C10.6861 148.108 9.99029 154.172 10.5116 160.195C11.0329 166.217 12.7612 172.081 15.5977 177.45C18.4343 182.818 22.3235 187.588 27.0434 191.486C31.7633 195.384 37.2214 198.334 43.1061 200.167C48.9907 202 55.1868 202.681 61.3404 202.171C67.494 201.661 73.4846 199.969 78.9703 197.193C84.456 194.417 89.3292 190.611 93.3119 185.991C94.1493 185.02 94.9379 184.025 95.6777 183.007C87.3504 191.196 76.1812 196.02 64.3878 196.522C52.5943 197.024 41.0392 193.167 32.0169 185.717Z" fill="black"/>
<path d="M258.468 260.959C259.07 260.241 259.503 259.402 259.737 258.502C259.971 257.602 260.001 256.662 259.824 255.749C259.648 254.837 259.269 253.973 258.714 253.219C258.159 252.466 257.442 251.84 256.614 251.387L242.58 195.167L232.342 198.366L247.496 254.202C246.81 255.614 246.678 257.224 247.124 258.726C247.57 260.228 248.563 261.517 249.915 262.35C251.268 263.183 252.885 263.502 254.462 263.245C256.038 262.989 257.464 262.176 258.468 260.959H258.468Z" fill="#FFB6B6"/>
<path d="M251.214 224.999L243.732 231.316L233.265 240.147L228.642 216.997L228.158 214.589L227.777 212.679L238.384 194.597L247.225 195.093L247.829 195.129L247.842 195.26L247.981 196.472L249.794 212.43L249.836 212.815L251.214 224.999Z" fill="#3F3D56"/>
<path d="M202.313 382.14L194.904 382.14L191.379 354.17L202.314 354.171L202.313 382.14Z" fill="#FFB6B6"/>
<path d="M204.201 389.169L180.311 389.169V388.873C180.311 386.459 181.29 384.145 183.034 382.438C184.778 380.731 187.143 379.772 189.609 379.772H189.61L204.201 379.773L204.201 389.169Z" fill="#2F2E41"/>
<path d="M279.668 382.732L272.26 382.731L268.734 354.761L279.67 354.762L279.668 382.732Z" fill="#FFB6B6"/>
<path d="M281.558 389.761L257.668 389.76V389.464C257.668 387.051 258.648 384.736 260.392 383.029C262.136 381.323 264.501 380.364 266.967 380.364H266.967L281.559 380.364L281.558 389.761Z" fill="#2F2E41"/>
<path d="M285.589 371.598L265.646 374.555L236.631 278.451L205.816 375.146L183.455 372.189L212.464 259.808V250.935L216.392 237.627L215.981 234.025L213.122 208.834L211.883 197.909L211.803 197.203C211.736 196.611 211.896 196.016 212.253 195.533C212.609 195.05 213.137 194.714 213.733 194.591L223.04 192.675H238.251L247.225 195.094L247.842 195.259L248.12 195.336L247.981 196.472L245.878 213.731L245.763 214.678L243.732 231.316L243.285 234.965C260.811 247.387 261.415 259.808 261.415 259.808L285.589 371.598Z" fill="#A8D83F"/>
<path d="M228.808 185.191C237.006 185.191 243.651 178.687 243.651 170.664C243.651 162.641 237.006 156.137 228.808 156.137C220.61 156.137 213.965 162.641 213.965 170.664C213.965 178.687 220.61 185.191 228.808 185.191Z" fill="#FFB6B6"/>
<path d="M244.398 231.627L215.035 235.385L215.584 239.491L244.947 235.733L244.398 231.627Z" fill="#3F3D56"/>
<path d="M175.649 236.623C175.929 236.801 176.195 237 176.444 237.219L205.487 229.973L207.468 223.115L218.433 224.689L216.131 237.162C215.945 238.17 215.43 239.091 214.663 239.788C213.897 240.485 212.92 240.92 211.879 241.027L177.969 244.522C177.416 245.661 176.522 246.608 175.406 247.238C174.29 247.867 173.004 248.15 171.72 248.047C170.436 247.944 169.215 247.461 168.218 246.662C167.222 245.863 166.497 244.786 166.141 243.574C165.786 242.362 165.815 241.073 166.226 239.878C166.637 238.683 167.41 237.639 168.442 236.884C169.474 236.13 170.716 235.701 172.004 235.654C173.291 235.607 174.562 235.945 175.649 236.623Z" fill="#FFB6B6"/>
<path d="M220.32 198.294L215.183 194.449C213.794 193.934 211.891 195.398 211.557 196.815L204.305 225.798L219.413 236.444L221.528 233.191L220.32 198.294Z" fill="#3F3D56"/>
<g opacity="0.2">
<path d="M249.795 212.43C248.513 212.928 247.206 213.362 245.879 213.731C245.456 213.855 245.021 213.974 244.592 214.086C241.764 214.854 238.857 215.314 235.926 215.458C234.664 215.511 233.4 215.477 232.143 215.358C230.793 215.226 229.459 214.969 228.16 214.589C228.118 214.577 228.069 214.565 228.027 214.553C225.325 213.802 222.847 212.425 220.805 210.537C220.349 210.102 219.923 209.638 219.53 209.147C218.401 207.795 217.573 206.226 217.099 204.543C216.624 202.86 216.514 201.098 216.774 199.37C216.825 199.057 216.893 198.747 216.98 198.441C217.207 197.609 217.509 196.798 217.88 196.016C218.043 195.65 218.225 195.289 218.418 194.934L225.247 192.675H238.252L247.227 195.094L247.831 195.129L247.843 195.259L248.121 195.336L247.982 196.472L249.795 212.43Z" fill="black"/>
</g>
<path d="M217.434 158.637C214.658 158.304 211.612 158.539 209.448 160.274C207.285 162.008 206.586 165.613 208.635 167.477C210.448 169.127 213.284 168.739 215.713 169.208C217.806 169.667 219.681 170.8 221.038 172.425C222.394 174.05 223.155 176.074 223.197 178.173C223.161 184.19 217.26 188.748 216.2 194.675C215.477 198.721 217.22 202.979 220.234 205.836C223.248 208.694 227.392 210.239 231.566 210.657C235.741 211.075 239.962 210.436 244.019 209.387C248.093 208.333 252.104 206.837 255.522 204.425C258.941 202.014 261.743 198.614 262.841 194.632C263.938 190.65 263.15 186.084 260.322 183.027C257.083 179.526 251.695 178.322 248.894 174.477C245.753 170.166 246.915 164.027 244.374 159.354C242.677 156.234 239.464 154.106 236.039 152.985C232.614 151.864 228.956 151.642 225.347 151.534C223.449 151.477 221.494 151.458 219.726 152.135C217.958 152.812 216.404 154.355 216.313 156.21C216.221 158.066 217.434 158.637 217.434 158.637Z" fill="#2F2E41"/>
<path d="M356.396 390H126.141C125.981 390 125.827 389.938 125.714 389.827C125.601 389.716 125.537 389.565 125.537 389.409C125.537 389.252 125.601 389.101 125.714 388.99C125.827 388.879 125.981 388.817 126.141 388.817H356.396C356.556 388.817 356.71 388.879 356.824 388.99C356.937 389.101 357.001 389.252 357.001 389.409C357.001 389.565 356.937 389.716 356.824 389.827C356.71 389.938 356.556 390 356.396 390Z" fill="#CACACA"/>
</g>
<defs>
<clipPath id="clip0_2_344">
<rect width="357" height="390" fill="white"/>
</clipPath>
</defs>
</svg>
