<svg width="178" height="69" viewBox="0 0 178 69" fill="none" xmlns="http://www.w3.org/2000/svg">
<path d="M64.9395 34.6725V22.9149H70.382C70.949 22.9149 71.4705 23.0308 71.9468 23.2626C72.4343 23.4834 72.8539 23.787 73.2054 24.1734C73.5569 24.5488 73.829 24.9738 74.0218 25.4486C74.2259 25.9233 74.3279 26.4035 74.3279 26.8893C74.3279 27.375 74.2485 27.8387 74.0898 28.2803C73.931 28.7109 73.7043 29.1028 73.4095 29.4561C73.1147 29.7983 72.7632 30.0798 72.355 30.3006L75.0082 34.6725H71.9298L69.6167 30.8802H67.7288V34.6725H64.9395ZM67.7288 28.5122H70.28C70.5068 28.5122 70.7052 28.4459 70.8753 28.3134C71.0567 28.1699 71.2041 27.9767 71.3175 27.7338C71.4309 27.491 71.4876 27.2094 71.4876 26.8893C71.4876 26.5691 71.4195 26.2931 71.2835 26.0613C71.1587 25.8184 71 25.6307 70.8072 25.4982C70.6145 25.3658 70.4104 25.2995 70.1949 25.2995H67.7288V28.5122ZM81.5067 34.7718C80.5996 34.7718 79.7776 34.6062 79.0406 34.275C78.3149 33.9328 77.6856 33.4802 77.1527 32.9171C76.6311 32.343 76.2286 31.7027 75.9451 30.9962C75.6616 30.2786 75.5199 29.5389 75.5199 28.7771C75.5199 27.9933 75.6673 27.2481 75.9621 26.5415C76.2682 25.835 76.6878 25.2057 77.2207 24.6537C77.765 24.0906 78.4056 23.649 79.1426 23.3289C79.8796 23.0087 80.6847 22.8486 81.5578 22.8486C82.4535 22.8486 83.2642 23.0198 83.9899 23.362C84.7269 23.6932 85.3562 24.1458 85.8778 24.7199C86.4107 25.294 86.8189 25.9398 87.1024 26.6574C87.3858 27.364 87.5276 28.0871 87.5276 28.8268C87.5276 29.6106 87.3802 30.3558 87.0854 31.0624C86.7906 31.769 86.371 32.4038 85.8268 32.9668C85.2825 33.5188 84.6419 33.9604 83.9049 34.2916C83.1792 34.6118 82.3798 34.7718 81.5067 34.7718ZM78.3602 28.8102C78.3602 29.2629 78.4283 29.7045 78.5643 30.135C78.7004 30.5546 78.8988 30.9299 79.1596 31.2611C79.4317 31.5923 79.7662 31.8573 80.1631 32.056C80.5599 32.2547 81.0135 32.3541 81.5237 32.3541C82.0567 32.3541 82.5215 32.2547 82.9184 32.056C83.3153 31.8462 83.6441 31.5702 83.9049 31.228C84.1657 30.8858 84.3584 30.5049 84.4831 30.0854C84.6192 29.6548 84.6872 29.2187 84.6872 28.7771C84.6872 28.3245 84.6192 27.8884 84.4831 27.4689C84.3471 27.0494 84.143 26.674 83.8708 26.3428C83.5987 26.0006 83.2642 25.7356 82.8674 25.5479C82.4705 25.3602 82.0226 25.2664 81.5237 25.2664C80.9908 25.2664 80.5259 25.3658 80.1291 25.5645C79.7436 25.7632 79.4147 26.0337 79.1426 26.3759C78.8818 26.7071 78.6834 27.088 78.5473 27.5186C78.4226 27.9381 78.3602 28.3686 78.3602 28.8102ZM94.429 34.7718C93.5219 34.7718 92.6998 34.6062 91.9628 34.275C91.2371 33.9328 90.6078 33.4802 90.0749 32.9171C89.5533 32.343 89.1508 31.7027 88.8673 30.9962C88.5839 30.2786 88.4421 29.5389 88.4421 28.7771C88.4421 27.9933 88.5895 27.2481 88.8843 26.5415C89.1905 25.835 89.61 25.2057 90.1429 24.6537C90.6872 24.0906 91.3278 23.649 92.0648 23.3289C92.8019 23.0087 93.6069 22.8486 94.48 22.8486C95.3757 22.8486 96.1865 23.0198 96.9121 23.362C97.6492 23.6932 98.2785 24.1458 98.8 24.7199C99.333 25.294 99.7411 25.9398 100.025 26.6574C100.308 27.364 100.45 28.0871 100.45 28.8268C100.45 29.6106 100.302 30.3558 100.008 31.0624C99.7128 31.769 99.2933 32.4038 98.749 32.9668C98.2048 33.5188 97.5641 33.9604 96.8271 34.2916C96.1014 34.6118 95.302 34.7718 94.429 34.7718ZM91.2825 28.8102C91.2825 29.2629 91.3505 29.7045 91.4866 30.135C91.6226 30.5546 91.8211 30.9299 92.0818 31.2611C92.354 31.5923 92.6885 31.8573 93.0853 32.056C93.4822 32.2547 93.9357 32.3541 94.446 32.3541C94.9789 32.3541 95.4438 32.2547 95.8406 32.056C96.2375 31.8462 96.5663 31.5702 96.8271 31.228C97.0879 30.8858 97.2807 30.5049 97.4054 30.0854C97.5414 29.6548 97.6095 29.2187 97.6095 28.7771C97.6095 28.3245 97.5414 27.8884 97.4054 27.4689C97.2693 27.0494 97.0652 26.674 96.7931 26.3428C96.521 26.0006 96.1865 25.7356 95.7896 25.5479C95.3928 25.3602 94.9449 25.2664 94.446 25.2664C93.913 25.2664 93.4482 25.3658 93.0513 25.5645C92.6658 25.7632 92.337 26.0337 92.0648 26.3759C91.804 26.7071 91.6056 27.088 91.4696 27.5186C91.3448 27.9381 91.2825 28.3686 91.2825 28.8102Z" fill="white"/>
<path d="M111.585 34.6724V27.6675L108.983 32.768H107.452L104.85 27.6675V34.6724H102.061V22.9148H105.088L108.217 29.0586L111.364 22.9148H114.374V34.6724H111.585ZM119.738 22.9148H122.748L126.898 34.6724H124.041L123.106 32.0394H119.347L118.428 34.6724H115.571L119.738 22.9148ZM122.646 30.1681L121.235 25.6472L119.789 30.1681H122.646ZM136.176 25.2994H132.502V34.6724H129.713V25.2994H126.022V22.9148H136.176V25.2994ZM146.025 32.2878V34.6724H137.538V22.9148H145.872V25.2994H140.328V27.5847H145.09V29.7872H140.328V32.2878H146.025Z" fill="#BBF147"/>
<path d="M64.9395 51.9225V40.1649H69.4466C70.7732 40.1649 71.8787 40.4298 72.7632 40.9598C73.6589 41.4786 74.3336 42.1852 74.7871 43.0794C75.2407 43.9626 75.4674 44.9452 75.4674 46.0271C75.4674 47.2194 75.218 48.2572 74.7191 49.1404C74.2202 50.0236 73.5172 50.7081 72.6101 51.1938C71.7143 51.6796 70.6598 51.9225 69.4466 51.9225H64.9395ZM72.6271 46.0271C72.6271 45.3426 72.5024 44.741 72.2529 44.2221C72.0035 43.6922 71.6406 43.2837 71.1644 42.9966C70.6882 42.6986 70.1156 42.5495 69.4466 42.5495H67.7288V49.5378H69.4466C70.1269 49.5378 70.6995 49.3888 71.1644 49.0907C71.6406 48.7816 72.0035 48.3621 72.2529 47.8322C72.5024 47.2912 72.6271 46.6895 72.6271 46.0271ZM87.5062 40.1649V51.9225H84.7168V47.1035H79.9035V51.9225H77.1142V40.1649H79.9035V44.7189H84.7168V40.1649H87.5062ZM95.11 52.0218C94.2029 52.0218 93.3808 51.8562 92.6438 51.525C91.9181 51.1828 91.2888 50.7302 90.7559 50.1671C90.2344 49.593 89.8318 48.9527 89.5484 48.2462C89.2649 47.5286 89.1232 46.7889 89.1232 46.0271C89.1232 45.2433 89.2706 44.4981 89.5654 43.7915C89.8715 43.085 90.291 42.4557 90.824 41.9037C91.3682 41.3406 92.0089 40.899 92.7459 40.5789C93.4829 40.2587 94.2879 40.0986 95.161 40.0986C96.0568 40.0986 96.8675 40.2698 97.5932 40.612C98.3302 40.9432 98.9595 41.3958 99.4811 41.9699C100.014 42.544 100.422 43.1898 100.706 43.9074C100.989 44.614 101.131 45.3371 101.131 46.0768C101.131 46.8606 100.983 47.6058 100.689 48.3124C100.394 49.019 99.9743 49.6538 99.43 50.2168C98.8858 50.7688 98.2451 51.2104 97.5081 51.5416C96.7825 51.8618 95.9831 52.0218 95.11 52.0218ZM91.9635 46.0602C91.9635 46.5129 92.0315 46.9545 92.1676 47.385C92.3037 47.8046 92.5021 48.1799 92.7629 48.5111C93.035 48.8423 93.3695 49.1073 93.7664 49.306C94.1632 49.5047 94.6168 49.6041 95.127 49.6041C95.6599 49.6041 96.1248 49.5047 96.5217 49.306C96.9185 49.0962 97.2473 48.8202 97.5081 48.478C97.7689 48.1358 97.9617 47.7549 98.0864 47.3354C98.2225 46.9048 98.2905 46.4687 98.2905 46.0271C98.2905 45.5745 98.2225 45.1384 98.0864 44.7189C97.9503 44.2994 97.7463 43.924 97.4741 43.5928C97.202 43.2506 96.8675 42.9856 96.4706 42.7979C96.0738 42.6102 95.6259 42.5164 95.127 42.5164C94.5941 42.5164 94.1292 42.6158 93.7323 42.8145C93.3468 43.0132 93.018 43.2837 92.7459 43.6259C92.4851 43.9571 92.2867 44.338 92.1506 44.7686C92.0259 45.1881 91.9635 45.6186 91.9635 46.0602ZM108.032 52.0218C107.125 52.0218 106.303 51.8562 105.566 51.525C104.84 51.1828 104.211 50.7302 103.678 50.1671C103.156 49.593 102.754 48.9527 102.47 48.2462C102.187 47.5286 102.045 46.7889 102.045 46.0271C102.045 45.2433 102.193 44.4981 102.487 43.7915C102.794 43.085 103.213 42.4557 103.746 41.9037C104.29 41.3406 104.931 40.899 105.668 40.5789C106.405 40.2587 107.21 40.0986 108.083 40.0986C108.979 40.0986 109.79 40.2698 110.515 40.612C111.252 40.9432 111.882 41.3958 112.403 41.9699C112.936 42.544 113.344 43.1898 113.628 43.9074C113.911 44.614 114.053 45.3371 114.053 46.0768C114.053 46.8606 113.906 47.6058 113.611 48.3124C113.316 49.019 112.896 49.6538 112.352 50.2168C111.808 50.7688 111.167 51.2104 110.43 51.5416C109.705 51.8618 108.905 52.0218 108.032 52.0218ZM104.886 46.0602C104.886 46.5129 104.954 46.9545 105.09 47.385C105.226 47.8046 105.424 48.1799 105.685 48.5111C105.957 48.8423 106.292 49.1073 106.688 49.306C107.085 49.5047 107.539 49.6041 108.049 49.6041C108.582 49.6041 109.047 49.5047 109.444 49.306C109.841 49.0962 110.169 48.8202 110.43 48.478C110.691 48.1358 110.884 47.7549 111.008 47.3354C111.145 46.9048 111.213 46.4687 111.213 46.0271C111.213 45.5745 111.145 45.1384 111.008 44.7189C110.872 44.2994 110.668 43.924 110.396 43.5928C110.124 43.2506 109.79 42.9856 109.393 42.7979C108.996 42.6102 108.548 42.5164 108.049 42.5164C107.516 42.5164 107.051 42.6158 106.654 42.8145C106.269 43.0132 105.94 43.2837 105.668 43.6259C105.407 43.9571 105.209 44.338 105.073 44.7686C104.948 45.1881 104.886 45.6186 104.886 46.0602Z" fill="#BBF147"/>
<path d="M118.453 45.1991V51.9225H115.664V40.1649H117.875L123.471 47.087V40.1649H126.26V51.9225H123.981L118.453 45.1991ZM128.569 51.9225V40.1649H133.077C134.403 40.1649 135.509 40.4298 136.393 40.9598C137.289 41.4786 137.964 42.1852 138.417 43.0794C138.871 43.9626 139.097 44.9452 139.097 46.0271C139.097 47.2194 138.848 48.2572 138.349 49.1404C137.85 50.0236 137.147 50.7081 136.24 51.1938C135.344 51.6796 134.29 51.9225 133.077 51.9225H128.569ZM136.257 46.0271C136.257 45.3426 136.132 44.741 135.883 44.2221C135.633 43.6922 135.271 43.2837 134.794 42.9966C134.318 42.6986 133.746 42.5495 133.077 42.5495H131.359V49.5378H133.077C133.757 49.5378 134.33 49.3888 134.794 49.0907C135.271 48.7816 135.633 48.3621 135.883 47.8322C136.132 47.2912 136.257 46.6895 136.257 46.0271ZM146.034 52.0218C145.127 52.0218 144.305 51.8562 143.568 51.525C142.842 51.1828 142.213 50.7302 141.68 50.1671C141.158 49.593 140.756 48.9527 140.472 48.2462C140.189 47.5286 140.047 46.7889 140.047 46.0271C140.047 45.2433 140.194 44.4981 140.489 43.7915C140.795 43.085 141.215 42.4557 141.748 41.9037C142.292 41.3406 142.933 40.899 143.67 40.5789C144.407 40.2587 145.212 40.0986 146.085 40.0986C146.981 40.0986 147.791 40.2698 148.517 40.612C149.254 40.9432 149.883 41.3958 150.405 41.9699C150.938 42.544 151.346 43.1898 151.629 43.9074C151.913 44.614 152.055 45.3371 152.055 46.0768C152.055 46.8606 151.907 47.6058 151.612 48.3124C151.318 49.019 150.898 49.6538 150.354 50.2168C149.81 50.7688 149.169 51.2104 148.432 51.5416C147.706 51.8618 146.907 52.0218 146.034 52.0218ZM142.887 46.0602C142.887 46.5129 142.955 46.9545 143.091 47.385C143.227 47.8046 143.426 48.1799 143.687 48.5111C143.959 48.8423 144.293 49.1073 144.69 49.306C145.087 49.5047 145.541 49.6041 146.051 49.6041C146.584 49.6041 147.049 49.5047 147.445 49.306C147.842 49.0962 148.171 48.8202 148.432 48.478C148.693 48.1358 148.885 47.7549 149.01 47.3354C149.146 46.9048 149.214 46.4687 149.214 46.0271C149.214 45.5745 149.146 45.1384 149.01 44.7189C148.874 44.2994 148.67 43.924 148.398 43.5928C148.126 43.2506 147.791 42.9856 147.394 42.7979C146.998 42.6102 146.55 42.5164 146.051 42.5164C145.518 42.5164 145.053 42.6158 144.656 42.8145C144.271 43.0132 143.942 43.2837 143.67 43.6259C143.409 43.9571 143.21 44.338 143.074 44.7686C142.95 45.1881 142.887 45.6186 142.887 46.0602Z" fill="white"/>
<path d="M23.3887 19.1475V53.6475H26.7549V50.3617H57.0505V53.6475H60.4167V27.3617C60.4167 23.731 57.4039 20.7904 53.6843 20.7904H38.5365V29.0046H26.7549V19.1475H23.3887ZM32.6457 19.1475C31.5297 19.1475 30.4594 19.5801 29.6703 20.3505C28.8812 21.1207 28.4379 22.1653 28.4379 23.2547C28.4379 24.3439 28.8812 25.3885 29.6703 26.1587C30.4594 26.9291 31.5297 27.3617 32.6457 27.3617C33.1983 27.3617 33.7453 27.2555 34.2559 27.0492C34.7664 26.8427 35.2302 26.5401 35.621 26.1587C36.0117 25.7773 36.3217 25.3247 36.5331 24.8263C36.7446 24.328 36.8534 23.7939 36.8534 23.2547C36.8534 22.1653 36.4101 21.1207 35.621 20.3505C34.8319 19.5801 33.7616 19.1475 32.6457 19.1475ZM26.7549 33.9331H57.0505V38.1388C56.0575 37.5639 54.913 37.2189 53.6843 37.2189H38.5365V45.4332H26.7549V33.9331ZM32.6457 35.576C31.5297 35.576 30.4594 36.0088 29.6703 36.779C28.8812 37.5492 28.4379 38.5939 28.4379 39.6832C28.4379 40.7724 28.8812 41.8171 29.6703 42.5873C30.4594 43.3577 31.5297 43.7903 32.6457 43.7903C33.7616 43.7903 34.8319 43.3577 35.621 42.5873C36.4101 41.8171 36.8534 40.7724 36.8534 39.6832C36.8534 38.5939 36.4101 37.5492 35.621 36.779C34.8319 36.0088 33.7616 35.576 32.6457 35.576Z" fill="#BBF147"/>
</svg>
