<svg width="1227" height="877" viewBox="0 0 1227 877" fill="none" xmlns="http://www.w3.org/2000/svg">
<path d="M1197.26 520.098C1148.28 625.877 1054.13 712.178 941 758.954" stroke="#C3ECFE" stroke-width="2.8"/>
<path d="M1189.74 515.122C1191.28 503.321 1194.18 490.952 1202.6 482.137C1204.29 480.431 1206.43 478.867 1208.73 479.009C1210.26 479.151 1211.64 480.004 1212.55 481.142C1216.23 484.838 1216.07 490.525 1215.16 495.501C1211.64 515.975 1200 535.026 1182.86 548.249C1185.46 535.453 1188.37 526.922 1189.74 515.122Z" fill="#C3ECFE"/>
<path d="M1151.78 551.234C1148.1 539.86 1145.5 527.491 1149.63 516.259C1150.4 514.126 1151.62 511.851 1153.92 511.141C1155.3 510.714 1156.83 511.141 1158.21 511.709C1163.1 513.842 1165.4 519.102 1166.78 523.936C1172.29 543.983 1169.69 565.879 1159.58 584.219C1156.67 571.566 1155.45 562.608 1151.78 551.234Z" fill="#C3ECFE"/>
<path d="M1121.93 594.883C1119.78 583.224 1118.86 570.713 1124.37 559.907C1125.45 557.917 1126.98 555.784 1129.27 555.358C1130.8 555.216 1132.33 555.642 1133.56 556.353C1138.15 559.054 1139.84 564.599 1140.45 569.575C1143.36 590.049 1137.85 611.375 1125.45 628.579C1124.07 615.641 1124.22 606.684 1121.93 594.883Z" fill="#C3ECFE"/>
<path d="M1082.74 633.838C1080.59 622.038 1079.67 609.526 1085.18 598.863C1086.1 596.73 1087.63 594.598 1090.08 594.171C1091.46 594.029 1092.99 594.456 1094.37 595.166C1098.96 597.868 1100.49 603.413 1101.11 608.389C1104.01 628.862 1098.5 650.331 1086.1 667.392C1084.88 654.454 1084.88 645.497 1082.74 633.838Z" fill="#C3ECFE"/>
<path d="M1027.62 678.483C1026.71 666.54 1027.32 654.028 1033.9 643.934C1035.13 641.943 1036.96 639.953 1039.26 639.811C1040.79 639.669 1042.32 640.379 1043.39 641.232C1047.83 644.36 1048.75 649.905 1048.75 655.024C1049.36 675.639 1041.55 696.397 1027.32 712.179C1027.47 699.24 1028.54 690.283 1027.62 678.483Z" fill="#C3ECFE"/>
<path d="M985.375 707.344C985.988 695.544 987.825 683.032 994.714 673.791C995.938 672.084 997.775 670.236 999.765 670.378C1001.14 670.378 1002.21 671.231 1003.13 672.227C1006.5 675.781 1006.65 681.468 1006.19 686.444C1004.2 707.06 995.173 726.68 981.242 740.898C982.773 727.96 984.763 719.287 985.375 707.344Z" fill="#C3ECFE"/>
<path d="M1181.78 582.94C1193.11 576.116 1205.81 570.002 1219.13 570.286C1221.58 570.286 1224.34 570.713 1225.72 572.561C1226.48 573.699 1226.63 575.263 1226.33 576.684C1225.26 581.803 1220.05 585.499 1215.15 588.201C1194.95 599.29 1170.61 603.556 1147.95 600.143C1160.96 593.603 1170.3 589.765 1181.78 582.94Z" fill="#C3ECFE"/>
<path d="M1157.59 624.455C1170.3 620.332 1184.23 617.347 1197.09 620.332C1199.54 621.043 1202.14 622.038 1202.91 624.171C1203.37 625.451 1203.06 626.872 1202.45 628.294C1200.15 632.986 1194.18 635.403 1188.67 636.967C1166.17 643.223 1141.37 641.943 1120.39 633.697C1134.63 630.142 1144.73 628.579 1157.59 624.455Z" fill="#C3ECFE"/>
<path d="M1117.48 670.662C1130.96 668.956 1145.19 668.53 1157.13 674.074C1159.43 675.07 1161.73 676.492 1162.03 678.766C1162.18 680.188 1161.57 681.61 1160.65 682.747C1157.44 686.87 1151.01 688.15 1145.35 688.719C1121.92 690.567 1097.89 684.88 1079.06 672.795C1093.91 671.942 1104.17 672.226 1117.48 670.662Z" fill="#C3ECFE"/>
<path d="M1058.4 707.913C1070.95 703.648 1084.88 700.236 1097.74 703.079C1100.19 703.648 1102.79 704.643 1103.71 706.634C1104.17 708.055 1103.86 709.477 1103.25 710.757C1101.11 715.591 1095.14 718.15 1089.78 719.856C1067.27 726.538 1042.63 725.827 1021.35 717.866C1035.59 714.169 1045.69 712.321 1058.4 707.913Z" fill="#C3ECFE"/>
<path d="M1012.47 750.424C1025.94 751.703 1040.03 754.547 1050.13 762.509C1051.97 763.931 1053.96 765.921 1053.65 768.196C1053.5 769.618 1052.43 770.755 1051.35 771.75C1047.07 775.02 1040.49 774.878 1034.82 774.025C1011.55 770.755 989.815 759.808 974.66 743.884C989.203 746.301 999.153 749.002 1012.47 750.424Z" fill="#C3ECFE"/>
<path d="M327.062 408.666C355.689 553.828 464.838 683.35 609.655 744.202" stroke="#C3ECFE" stroke-width="2.8"/>
<path d="M334.412 439.092C320.941 422.599 314.052 401.557 315.583 380.941C315.889 375.965 317.114 370.278 321.553 367.435C322.778 366.582 324.309 366.013 325.687 366.155C328.136 366.439 329.82 368.572 330.892 370.42C337.168 380.941 337.015 393.453 335.637 405.254C334.259 417.054 334.872 426.011 334.412 439.092Z" fill="#C3ECFE"/>
<path d="M348.342 478.901C342.984 458.854 345.74 437.101 355.843 418.76C358.292 414.21 361.813 409.519 367.171 408.523C368.702 408.239 370.233 408.239 371.458 408.95C373.601 410.087 374.213 412.504 374.519 414.779C375.744 426.58 370.233 438.096 363.957 448.475C357.527 458.712 354.312 467.242 348.342 478.901Z" fill="#C3ECFE"/>
<path d="M370.997 529.231C363.037 509.895 362.884 488 370.538 468.664C372.375 463.83 375.284 458.854 380.489 457.148C381.866 456.721 383.397 456.579 384.775 457.148C387.071 458.001 387.99 460.418 388.602 462.55C391.358 474.209 387.377 486.152 382.479 497.099C377.58 508.189 375.437 517.004 370.997 529.231Z" fill="#C3ECFE"/>
<path d="M400.085 575.297C392.125 555.961 391.819 534.065 399.626 514.587C401.463 509.895 404.219 504.777 409.424 503.213C410.801 502.644 412.485 502.502 413.863 503.071C416.006 503.924 416.925 506.341 417.537 508.616C420.292 520.132 416.465 532.217 411.414 543.165C406.515 554.112 404.372 562.927 400.085 575.297Z" fill="#C3ECFE"/>
<path d="M446.625 631.172C436.521 612.689 433.919 590.936 439.43 570.889C440.807 565.913 442.951 560.652 448.002 558.52C449.227 557.951 450.911 557.667 452.289 558.093C454.585 558.662 455.81 560.937 456.575 563.069C460.708 574.443 458.106 586.671 454.432 598.045C450.758 609.419 449.686 618.518 446.625 631.172Z" fill="#C3ECFE"/>
<path d="M484.738 668.564C474.481 651.93 470.348 630.887 473.41 610.414C474.175 605.438 475.706 599.893 479.839 597.049C480.911 596.339 482.288 595.77 483.513 596.054C485.503 596.339 486.881 598.471 487.646 600.32C492.086 610.841 491.014 623.352 488.718 635.011C486.422 646.811 486.269 655.768 484.738 668.564Z" fill="#C3ECFE"/>
<path d="M355.844 496.815C333.034 495.536 310.378 486.294 293.386 471.224C289.1 467.527 284.966 462.978 285.119 457.717C285.272 456.295 285.732 454.873 286.803 453.878C288.487 452.314 291.396 452.456 293.845 453.025C306.704 455.584 317.726 464.115 327.064 473.072C336.555 482.029 344.822 487.716 355.844 496.815Z" fill="#C3ECFE"/>
<path d="M374.824 535.203C352.32 539.042 327.827 535.061 307.467 524.256C302.415 521.696 297.21 518 295.986 513.024C295.68 511.602 295.833 510.038 296.598 508.9C297.823 506.91 300.731 506.483 303.181 506.483C316.346 506.057 329.205 511.886 340.686 518.568C352.167 525.251 361.659 528.805 374.824 535.203Z" fill="#C3ECFE"/>
<path d="M405.596 581.979C384.471 589.799 359.671 590.51 337.321 583.685C331.81 581.979 325.84 579.42 323.697 574.728C323.084 573.448 322.778 571.884 323.39 570.605C324.156 568.472 326.758 567.477 329.208 567.05C342.22 564.207 355.997 567.477 368.703 571.884C381.409 576.292 391.513 578.14 405.596 581.979Z" fill="#C3ECFE"/>
<path d="M451.065 637.854C428.409 641.266 404.221 636.716 384.014 625.485C378.963 622.783 373.911 619.087 372.839 613.968C372.533 612.546 372.686 611.125 373.452 609.845C374.829 607.997 377.585 607.57 380.187 607.57C393.352 607.57 406.058 613.684 417.387 620.508C428.715 627.333 438.206 631.172 451.065 637.854Z" fill="#C3ECFE"/>
<path d="M490.404 672.83C471.728 685.199 448 691.313 424.425 689.749C418.761 689.464 412.332 688.327 408.964 684.062C408.045 682.924 407.433 681.644 407.586 680.223C407.892 677.948 410.188 676.526 412.331 675.389C424.119 669.702 438.509 669.986 451.827 671.266C465.298 672.687 475.555 672.261 490.404 672.83Z" fill="#C3ECFE"/>
<path d="M45.0801 611.41C203.981 604.727 364.259 674.252 460.702 791.832" stroke="#C3ECFE" stroke-width="2.8"/>
<path d="M43.3967 619.94C31.4562 623.779 18.138 626.764 5.89127 623.494C3.59502 622.925 1.14568 621.788 0.227179 619.798C-0.232072 618.376 0.0740965 616.954 0.533347 615.674C2.67652 610.983 8.18753 608.708 13.3924 607.144C34.8241 601.172 58.3989 602.736 78.6059 611.125C65.1346 614.537 55.4903 615.959 43.3967 619.94Z" fill="#C3ECFE"/>
<path d="M95.1406 635.864C85.6494 643.826 74.7805 651.361 62.2277 652.925C59.7783 653.21 57.0228 653.21 55.3389 651.646C54.2673 650.508 53.9612 649.086 53.9612 647.807C53.8081 642.688 57.9413 638.423 62.0746 635.153C79.0669 621.931 101.417 614.538 123.614 614.822C112.745 622.926 104.479 627.76 95.1406 635.864Z" fill="#C3ECFE"/>
<path d="M150.399 641.693C139.99 648.659 128.202 654.773 115.496 654.915C113.047 654.915 110.291 654.631 108.914 652.782C107.995 651.645 107.842 650.223 107.995 648.802C108.607 643.825 113.2 640.129 117.792 637.285C136.469 626.053 159.431 621.219 181.475 624.063C169.535 630.887 160.809 634.726 150.399 641.693Z" fill="#C3ECFE"/>
<path d="M205.206 657.617C194.796 664.441 183.009 670.697 170.303 670.839C167.853 670.839 165.098 670.555 163.72 668.706C162.802 667.569 162.649 666.147 162.802 664.725C163.261 659.607 168.007 655.91 172.599 653.209C191.122 641.977 214.238 637.143 236.282 639.987C224.341 646.811 215.616 650.65 205.206 657.617Z" fill="#C3ECFE"/>
<path d="M272.411 684.062C261.389 690.033 248.989 695.01 236.283 693.872C233.834 693.73 231.231 693.161 230.007 691.171C229.241 690.033 229.088 688.469 229.547 687.19C230.619 682.214 235.671 678.944 240.569 676.669C260.317 667.143 283.739 664.726 305.324 669.702C292.771 675.247 283.586 678.233 272.411 684.062Z" fill="#C3ECFE"/>
<path d="M318.949 706.81C307.162 711.501 294.303 715.34 282.362 713.634C280.066 713.35 277.617 712.639 276.851 710.933C276.239 709.795 276.545 708.516 277.158 707.236C279.148 702.971 284.506 700.412 289.71 698.563C310.377 691.17 333.339 690.175 353.24 695.72C340.075 699.985 330.737 702.26 318.949 706.81Z" fill="#C3ECFE"/>
<path d="M112.743 597.049C101.109 590.509 89.7809 582.405 84.1168 571.316C83.0452 569.183 82.2798 566.624 83.5045 564.775C84.2699 563.638 85.6476 562.785 87.1785 562.501C92.5364 561.079 98.3536 563.78 103.252 566.766C122.847 578.851 137.543 597.334 144.126 617.665C132.032 609.703 124.225 603.59 112.743 597.049Z" fill="#C3ECFE"/>
<path d="M163.415 599.04C153.924 590.225 144.892 579.846 142.289 567.761C141.83 565.487 141.677 562.927 143.361 561.363C144.433 560.368 145.963 559.942 147.494 559.942C153.158 559.8 158.057 563.78 162.037 567.619C177.958 583.827 187.602 605.012 188.674 626.196C179.029 615.817 173.059 607.997 163.415 599.04Z" fill="#C3ECFE"/>
<path d="M225.718 612.405C218.217 601.884 211.635 590.083 211.635 577.856C211.788 575.439 212.094 572.88 214.084 571.6C215.462 570.889 216.993 570.747 218.524 571.031C224.035 572.027 228.015 576.718 231.076 581.268C243.17 600.035 248.069 622.641 244.548 643.541C237.353 631.599 233.22 622.926 225.718 612.405Z" fill="#C3ECFE"/>
<path d="M287.716 645.532C277.919 636.859 268.581 626.765 265.825 614.822C265.213 612.547 265.06 609.846 266.744 608.282C267.662 607.287 269.346 606.86 270.877 606.718C276.388 606.576 281.44 610.272 285.42 614.253C301.8 629.893 311.903 650.935 313.434 672.119C303.637 661.882 297.513 654.347 287.716 645.532Z" fill="#C3ECFE"/>
<path d="M348.797 665.436C344.204 653.493 340.837 640.555 344.051 628.612C344.664 626.48 345.888 624.063 348.032 623.21C349.562 622.783 351.093 623.068 352.471 623.636C357.676 625.769 360.278 631.314 361.962 636.432C368.851 657.332 367.779 680.223 358.901 699.843C355.073 686.621 353.236 677.237 348.797 665.436Z" fill="#C3ECFE"/>
<path opacity="0.4" d="M991.02 864.608C991.02 871.326 853.525 877 684.087 877C514.495 877 377 871.326 377 864.608C377 857.74 514.495 852.216 684.087 852.216C853.525 852.216 991.02 857.74 991.02 864.608Z" fill="#A1D7E5"/>
<path fill-rule="evenodd" clip-rule="evenodd" d="M720.66 29.7111C720.66 37.6241 720.66 67.9324 720.66 67.9324H659.088V29.7111C659.088 13.2879 672.822 0 689.797 0C706.926 0 720.66 13.2879 720.66 29.7111ZM707.08 30.159C707.08 20.9023 699.364 13.4372 689.797 13.4372C680.383 13.4372 672.513 20.9023 672.513 30.159C672.513 39.4158 680.383 46.8808 689.797 46.8808C699.364 46.8808 707.08 39.4158 707.08 30.159Z" fill="#E8505B"/>
<g opacity="0.5">
<path fill-rule="evenodd" clip-rule="evenodd" d="M720.66 64.1996C720.66 66.4392 720.66 67.9322 720.66 67.9322H659.088V29.7109C659.088 16.1244 668.501 4.62817 681.464 1.04492C673.131 6.41979 668.501 15.5272 668.501 25.9783V64.1996H720.66ZM707.08 30.1588C707.08 20.9021 699.364 13.437 689.797 13.437C688.871 13.437 688.099 13.5863 687.173 13.5863C689.797 12.6905 689.951 12.0933 694.272 12.0933C703.839 12.0933 711.555 19.5584 711.555 28.8151C711.555 37.176 707.08 41.655 700.444 43.2974C704.148 40.3113 707.08 35.2351 707.08 30.1588Z" fill="#B03D44"/>
</g>
<path d="M944.264 864.458H423.759C407.093 864.458 393.668 851.32 393.668 835.345V98.9871C393.668 83.0118 407.093 70.0225 423.759 70.0225H944.264C960.93 70.0225 974.355 83.0118 974.355 98.9871V835.345C974.355 851.32 960.93 864.458 944.264 864.458Z" fill="#3E89CC"/>
<path d="M940.715 833.254H427.309V101.077H940.715V833.254Z" fill="#C3ECFE"/>
<path d="M870.808 83.161V113.021H497.211V83.161C497.211 80.9712 497.52 78.881 498.137 76.8903C500.915 68.38 509.248 62.1094 518.815 62.1094H849.204C861.086 62.1094 870.808 71.5154 870.808 83.161Z" fill="#E8505B"/>
<path opacity="0.5" d="M870.808 105.556V113.021H497.211V91.3726C497.211 85.5498 497.52 80.7721 498.137 76.8903C500.915 68.38 509.248 62.1094 518.815 62.1094H521.593C515.883 67.4842 511.717 75.5466 511.717 83.9075V105.556H870.808Z" fill="#B03D44"/>
<path d="M323.078 450.181C323.078 450.181 324.456 458.285 325.221 458.996C325.221 458.996 324.456 460.276 321.854 460.418" fill="#FFB392"/>
<path opacity="0.4" d="M388.601 864.768C388.601 868.18 355.841 870.882 315.58 870.882C275.166 870.882 242.406 868.18 242.406 864.768C242.406 861.356 275.166 858.654 315.58 858.654C355.841 858.654 388.601 861.356 388.601 864.768Z" fill="#A1D7E5"/>
<path d="M352.624 485.583L402.836 492.266C404.826 492.55 406.204 494.398 405.744 496.104L389.517 561.932C389.211 563.638 387.527 564.633 385.843 564.349L335.632 557.667C333.642 557.382 332.264 555.676 332.723 553.828L348.797 488C349.256 486.436 350.94 485.441 352.624 485.583Z" fill="#57C6F2"/>
<path d="M401.917 496.815L386.456 559.799L336.551 553.259L352.012 490.133L401.917 496.815Z" fill="#E5F8FF"/>
<path d="M396.56 501.507L354.156 495.82" stroke="#A1D2F0" stroke-width="1.1" stroke-linecap="round" stroke-linejoin="round"/>
<path d="M395.181 507.337L352.777 501.792" stroke="#A1D2F0" stroke-width="1.1" stroke-linecap="round" stroke-linejoin="round"/>
<path d="M377.579 512.313L351.096 508.758" stroke="#A1D2F0" stroke-width="1.1" stroke-linecap="round" stroke-linejoin="round"/>
<path d="M375.587 517.431L349.104 513.876" stroke="#A1D2F0" stroke-width="1.1" stroke-linecap="round" stroke-linejoin="round"/>
<path d="M373.751 522.55L347.268 518.995" stroke="#A1D2F0" stroke-width="1.1" stroke-linecap="round" stroke-linejoin="round"/>
<path d="M383.55 550.843L357.066 547.431" stroke="#A1D2F0" stroke-width="1.1" stroke-linecap="round" stroke-linejoin="round"/>
<path d="M319.559 557.809C321.549 550.558 324.151 543.449 328.591 537.193C330.121 535.108 331.805 533.165 333.642 531.364C336.245 528.662 339.306 526.245 342.98 524.966C343.44 526.245 342.674 527.525 342.062 528.662C339.153 533.212 336.857 538.188 335.326 543.307C338.694 543.022 340.837 539.041 344.205 539.326C344.052 540.463 343.287 541.316 342.521 542.311C340.48 544.491 338.49 546.671 336.551 548.851C334.561 551.126 332.418 553.401 329.509 554.681" fill="#F2A181"/>
<path d="M314.813 713.919C312.364 734.108 295.219 797.092 288.636 837.612C287.871 842.304 273.94 839.887 275.93 825.954C278.073 812.021 277.614 759.131 280.216 743.065C282.513 729.558 288.33 716.762 289.095 712.213C289.861 707.521 279.145 644.963 277.461 640.556C275.777 635.864 271.95 630.888 268.888 620.935C262.612 600.604 279.298 579.562 279.298 579.562L315.119 607.713C316.344 656.622 317.263 693.588 314.813 713.919Z" fill="#FFBE9D"/>
<path d="M316.036 647.522C316.495 676.81 316.495 699.559 314.812 713.918C314.199 718.895 312.668 726.856 310.525 736.24C310.423 735.861 310.372 735.434 310.372 734.961C310.219 728.563 310.831 722.022 310.525 715.625C310.066 703.255 306.239 691.17 299.656 680.791L315.271 647.522C315.475 647.522 315.73 647.522 316.036 647.522Z" fill="#F2A181"/>
<path d="M291.085 824.532C291.085 824.532 287.717 839.318 288.635 841.167C289.554 843.015 292.769 848.418 295.983 850.408C299.504 852.541 307.158 854.958 307.771 855.811C308.383 856.664 308.536 858.086 307.312 858.797C304.556 860.929 299.657 861.925 296.443 861.356C286.033 859.792 284.961 855.527 278.838 854.816C277.766 854.674 275.776 856.095 272.868 854.816C269.959 853.394 268.581 850.977 268.888 848.56C269.347 844.579 271.796 841.167 273.48 838.181C275.164 835.195 276.389 821.546 276.389 821.546" fill="#FFBE9D"/>
<path d="M295.83 863.062C292.462 862.92 289.859 862.351 287.257 861.072C286.185 860.645 285.573 859.081 284.808 858.37C284.655 858.086 281.593 856.522 279.756 856.095C277.919 855.811 276.541 855.811 276.541 855.811L276.082 858.939C276.082 858.939 273.633 859.223 271.796 858.939C269.04 858.37 267.968 857.659 267.968 857.659C268.275 855.527 267.662 853.536 267.356 852.683C267.05 851.261 267.815 848.702 268.122 847.423C268.734 845.859 271.03 841.167 272.102 840.598C272.255 841.593 274.551 847.423 279.909 848.702C283.583 849.555 288.482 853.536 295.064 853.963C296.901 854.105 298.891 851.972 297.82 851.404C296.748 850.835 299.963 851.546 301.953 852.399C303.943 853.252 307.464 855.384 308.382 856.095C309.148 856.522 308.995 858.37 308.229 859.508C306.852 861.64 302.718 863.489 295.83 863.062Z" fill="#1B227A"/>
<path d="M364.107 861.924C361.505 864.483 356.606 866.189 353.238 866.189C342.216 866.189 340.379 862.066 334.103 862.351C333.031 862.351 331.194 864.057 327.979 863.204C324.764 862.208 322.927 860.076 322.774 857.659C322.621 853.536 326.142 849.839 327.367 846.569C328.592 844.01 327.826 835.764 327.673 832.209C326.295 814.579 318.794 768.23 319.1 752.875C319.407 734.96 324.765 718.468 324.765 718.468C324.765 718.468 297.363 642.546 295.526 637.854C293.689 633.02 282.82 631.172 280.37 619.087C276.237 598.187 288.79 576.292 288.79 576.292L334.103 608.566C346.196 655.626 350.329 685.91 348.799 715.198C348.033 731.975 342.216 802.352 341.451 831.214C341.451 835.337 341.144 845.289 342.063 847.28C342.981 849.27 347.421 853.962 351.095 855.384C355.075 856.806 363.342 858.085 364.107 858.938C364.872 859.649 365.179 860.929 364.107 861.924Z" fill="#FFBE9D"/>
<path d="M352.78 867.896C349.413 868.322 347.116 868.038 343.902 867.327C342.83 867.043 341.758 865.905 340.84 865.336C339.615 864.483 337.166 863.488 335.329 863.488C333.339 863.346 331.808 863.63 331.808 863.63V866.9C331.808 866.9 329.359 867.469 327.522 867.469C324.46 867.327 323.235 866.758 323.235 866.758C323.388 864.626 322.317 862.777 322.011 861.924C321.245 860.502 321.705 857.943 322.011 856.664C322.164 855.1 325.072 849.981 325.991 849.271C326.45 850.124 328.44 855.668 334.257 856.095C338.238 856.379 343.749 859.649 350.637 858.938C352.627 858.796 354.464 856.379 353.087 855.953C351.862 855.668 355.383 855.953 357.526 856.379C359.822 856.948 363.649 858.512 364.721 859.081C365.639 859.365 365.639 861.213 365.027 862.493C364.109 864.768 360.128 867.185 352.78 867.896Z" fill="#1B227A"/>
<path d="M333.487 572.879C333.487 572.879 345.122 593.069 346.652 605.722C349.867 632.451 348.796 644.821 348.796 644.821C348.796 644.821 337.161 650.366 305.167 652.356C287.868 653.351 279.755 652.356 279.755 650.934C279.755 649.655 274.55 642.83 271.795 635.295C270.723 632.594 265.977 623.636 266.131 609.845C266.284 596.054 277.153 579.135 280.214 576.007" fill="#1B227A"/>
<path d="M272.256 518.71C274.706 525.961 277.461 556.671 277.461 556.671L307.925 543.164L312.824 552.264C312.824 552.264 278.227 579.135 271.95 579.561C265.521 579.988 258.938 553.259 257.56 548.994C256.183 544.728 251.131 520.985 251.131 520.985" fill="#FFBE9D"/>
<path d="M296.288 552.833C296.135 560.084 275.01 567.335 274.703 565.629C272.713 557.382 266.131 546.293 262.916 535.629" fill="#F2A181"/>
<path d="M275.01 506.767L277.459 534.349C277.459 534.349 270.418 536.624 261.692 537.193C252.813 537.62 253.578 535.771 253.578 535.771C253.578 535.771 243.475 502.075 256.487 492.692C261.539 489.137 271.795 488.142 271.795 488.142" fill="#BBF147"/>
<path d="M270.112 536.198C270.112 536.198 266.744 537.051 262.917 537.051C259.09 527.099 260.162 507.194 260.162 507.194L270.112 536.198Z" fill="#A8D744"/>
<path d="M320.021 425.869C326.144 433.262 324.919 443.499 323.389 452.74C322.674 457.385 321.96 461.982 321.245 466.531C320.786 468.806 320.327 471.223 318.49 472.645C316.653 474.067 313.897 474.067 311.601 473.925C311.601 477.716 311.601 481.555 311.601 485.441C304.559 485.63 297.517 485.63 290.476 485.441C290.476 482.882 289.863 480.18 288.639 477.763C285.118 477.621 282.821 474.351 281.444 471.508C279.913 468.095 278.841 464.541 277.617 460.987C276.239 456.153 274.861 451.461 274.708 446.485C274.555 441.651 275.78 436.532 279.147 432.693C281.444 430.134 284.658 428.286 287.72 426.722C292.159 424.589 297.364 422.883 301.957 424.732" fill="#FFBE9D"/>
<path d="M316.494 463.688C317.107 463.546 317.566 464.114 317.413 464.683C314.657 471.365 306.544 470.797 301.186 471.65C290.929 473.214 279.754 472.076 271.947 464.399C263.068 455.868 260.772 440.94 265.364 430.561C271.488 417.054 292.919 411.367 307.922 417.054C316.035 420.182 321.546 426.722 322.158 435.253C322.618 440.655 322.311 446.2 320.934 451.319C320.474 450.608 319.709 450.039 318.944 449.755C317.719 449.186 316.341 449.328 315.27 450.039C314.351 450.608 313.739 451.319 313.28 452.172C312.055 454.873 311.902 457.006 312.82 460.844C312.973 461.555 314.351 463.83 316.494 463.688Z" fill="black"/>
<path d="M299.043 427.006C298.584 426.153 298.89 425.158 299.196 424.447C299.961 422.457 301.339 420.75 303.176 419.613C307.462 417.054 313.28 416.912 317.107 419.471C322.465 423.167 326.751 430.703 326.139 437.101C325.985 439.091 325.067 440.655 324.455 442.503C323.842 444.352 323.536 446.2 323.077 448.048C322.618 449.612 322.311 452.882 320.321 454.02C320.474 452.456 321.087 449.044 318.484 448.048C316.954 447.337 315.729 446.769 314.81 445.489C314.351 444.636 314.504 443.499 313.892 442.646" fill="black"/>
<path d="M279.912 488.142C280.218 486.01 280.984 483.308 283.127 482.455C283.739 482.171 284.505 482.171 285.117 482.029C292.057 481.365 298.997 481.081 305.936 481.175C308.845 481.175 311.753 481.318 314.356 482.455C318.336 484.446 320.632 488.427 322.469 492.123" fill="#BBF147"/>
<path d="M339.612 574.159C338.694 581.268 324.916 583.4 318.64 583.685C310.22 583.969 300.729 584.395 292.463 583.827C287.105 583.4 274.399 581.552 275.317 576.291C275.624 574.87 277.767 572.737 278.685 571.6C282.512 566.623 267.051 540.747 264.602 533.354C260.621 522.122 259.091 510.037 260.928 498.236C262.152 490.559 267.51 488.995 273.633 487.715C279.144 486.578 284.655 486.009 290.32 485.867C301.648 485.298 308.23 484.019 319.405 485.725C320.63 485.867 326.6 488.426 327.519 489.279C328.437 490.132 328.59 491.412 328.897 492.549C330.274 499.232 327.825 499.232 331.958 504.634C334.714 508.473 339.919 517.43 337.622 529.089C335.938 538.046 332.111 540.179 331.346 544.159C330.734 547.998 332.418 562.642 334.255 566.197C335.173 567.619 337.316 569.183 338.235 570.462C339 571.6 339.766 572.737 339.612 574.159Z" fill="#BBF147"/>
<path d="M335.938 531.222C335.938 533.354 334.56 536.198 334.254 537.335C332.723 538.046 326.446 539.326 322.772 537.762C322.007 530.795 317.721 517.431 317.721 517.431C317.721 517.431 335.938 529.374 335.938 531.222Z" fill="#A8D744"/>
<path d="M347.266 510.038L358.747 543.449L369.922 525.535L380.179 529.942C380.179 529.942 364.105 572.88 357.522 572.88C348.644 572.88 327.824 526.388 327.824 526.388" fill="#FFBE9D"/>
<path d="M367.932 528.805C367.932 528.805 371.299 523.829 371.146 520.417C370.993 518.995 370.075 512.739 370.84 511.459C371.606 510.18 373.29 506.199 374.208 505.346C375.28 504.635 378.801 503.355 379.719 503.924C380.485 504.493 381.709 501.791 383.087 502.076C384.618 502.36 385.842 503.355 385.842 504.635C385.842 505.914 387.679 506.199 387.986 507.052C388.292 507.905 388.139 508.758 388.445 509.469C388.751 510.038 389.823 509.753 390.282 511.459C390.588 513.023 390.129 513.165 390.282 513.876C390.435 514.729 391.2 514.587 390.894 516.151C390.588 517.573 389.516 519.563 388.598 521.27C387.526 522.976 385.536 525.108 382.934 526.53C381.556 527.383 380.944 528.663 379.566 530.795" fill="#FFBE9D"/>
<path d="M379.567 505.63C379.567 505.63 379.873 506.057 378.955 506.91C378.036 507.621 377.424 507.052 377.424 507.052C377.424 507.052 371.607 494.54 371.301 494.256C371.148 493.829 370.995 492.976 371.76 492.408C372.525 491.839 373.291 492.408 373.597 492.834C373.75 493.261 379.567 505.63 379.567 505.63Z" fill="#1B227A"/>
<path d="M380.791 505.062C380.485 506.341 379.413 507.194 378.342 507.905C375.892 509.469 376.198 510.464 374.361 510.607C375.433 509.754 375.28 509.185 376.198 508.332C377.423 507.337 378.801 506.626 380.025 504.777C380.332 504.351 380.791 504.635 380.791 505.062Z" fill="#F2A181"/>
<path d="M308.84 485.015C314.198 485.299 329.965 482.74 338.691 491.128C345.886 498.237 350.172 516.862 353.081 524.398C345.733 531.364 338.691 536.909 327.669 534.634C327.21 534.35 321.699 518.284 317.719 516.862" fill="#BBF147"/>
<path d="M348.949 632.451C348.949 632.451 352.47 712.07 351.858 717.757C351.092 723.586 344.203 833.346 344.203 833.346C344.203 833.346 329.967 835.621 321.394 833.346C321.394 833.346 310.372 747.898 321.394 721.311L316.495 695.72C316.495 695.72 317.261 714.771 316.495 718.61C315.73 722.449 293.686 830.645 293.686 830.645C293.686 830.645 279.143 830.218 272.56 824.816C272.56 824.816 270.417 749.747 285.572 718.041L271.795 635.295L279.755 614.252L348.949 632.451Z" fill="#1B227A"/>
<path d="M316.803 697.283C301.188 652.498 306.393 655.483 299.658 642.119C296.902 636.716 289.707 636.148 286.033 625.626C288.176 629.75 294.453 634.157 301.342 639.133C301.954 640.128 314.507 683.492 316.497 695.719" fill="#170D54"/>
<path d="M268.581 465.678C281.44 459.707 290.778 470.654 291.085 482.029C291.544 495.82 282.512 508.9 269.04 514.587C263.989 516.72 258.172 517.857 252.814 517.004C247.303 516.009 242.098 512.881 239.648 508.189C242.098 511.886 248.221 511.743 251.589 508.9C254.957 505.914 255.875 501.364 255.875 497.099C255.875 492.976 254.804 488.711 255.263 484.446C255.722 476.626 260.927 469.09 268.581 465.678Z" fill="black"/>
</svg>
