<svg width="875" height="730" viewBox="0 0 875 730" fill="none" xmlns="http://www.w3.org/2000/svg">
<path d="M872.04 678.352C852.823 743.39 716.72 729.194 674.125 727.616C515.734 721.913 141.103 726.039 97.3197 726.039C53.5367 726.039 -10.7509 721.913 1.53212 673.378C19.5604 601.909 120.796 570.239 104.254 515.03C89.2961 465.038 116.834 420.87 154.574 383.983C192.315 346.974 233.522 354.376 216.088 254.028C196.376 141.425 263.734 145.308 301.97 101.747C357.838 38.0441 386.168 1.88494 447.385 0.0648475C532.376 -2.60462 703.347 77.4794 725.139 178.07C735.144 223.936 734.451 277.69 770.904 305.962C786.852 318.338 804.781 323.677 822.71 331.564C859.262 347.338 874.417 381.92 874.021 415.895C873.031 499.013 826.375 501.439 841.035 565.871C851.238 610.888 885.116 633.942 872.04 678.352Z" fill="#C3ECFE" fill-opacity="0.6"/>
</svg>
